<svg xmlns="http://www.w3.org/2000/svg" viewBox="0 0 466.25 136.19"><defs><style>.cls-1{fill:#002d73;}.cls-2{fill:#00c4b3;}.cls-3{fill:#c3c6c8;}</style></defs><title>logo</title><g id="Layer_2" data-name="Layer 2"><g id="Layer_1-2" data-name="Layer 1"><path class="cls-1" d="M67.4,103c9,2.83,29,2.75,34.58-6.25,0,0,1.5,7.83,12.17,8s18-8.67,18-8.67A12.33,12.33,0,0,0,146,104.24c10.83-1.5,16.17-7.83,16.17-7.83A11.57,11.57,0,0,0,175,105.08c10.67-1,13.83-5.67,13.83-5.67s5.33,6.67,13.83,5.67,18.67-5.33,18.67-5.33,23.36,13.39,20.67,1.67c-2.33-10.17,3.83-14.67,3.83-14.67s-4.83,15.17,7.5,16.67,22,1.83,30-6.33c0,0,2.67,8.33,10,7s11-3.67,11-3.67,6.33,7.33,28.33,7c0,0,2.5,22.67,6.33,27.17s12.17-32.33,12.17-32.33a16.11,16.11,0,0,0,13.67-4.5s4.5,9,17.83,7.83a48.55,48.55,0,0,0,22.83-8.33s4.17,9,11.83,9a17.32,17.32,0,0,0,12.17-5s10,8.17,19.83,4.33S454,95.41,453,83.91a35.27,35.27,0,0,1,8.5-26.17c6-7,3.5-7.83-2.5-9.5,0,0-2.34-5.17-2.83-22.25-.25-8.73-6.84-8.42-17,20.59,0,0-19.17-13.17-29.5,3.83,0,0-15.17-17.33-34.67-2.33,0,0-12.17-12.67-31.17-2.34,0,0-.87-5.55-2.5-23.83-.83-9.33-16,20.67-16,20.67s-7.84-.33-18.17,6.5c0,0-4.67-8.67-19.83-7.33,0,0-30.33-20-37.67,23.16-3.33-6.5,7.67-29-24.33-18,0,0-9.5-7.67-29.83-3.67,0,0-19.17-7.5-25,4.83,0,0-13.5-15.33-27.83.83,0,0-12.67-17.5-31.67.33,0,0-3.67-8.67-18.67-10.33-11.22-1.25-17.33,2.21-24,24.71C67.4,65.49,58.4,100.16,67.4,103Z"/><path class="cls-1" d="M67.2,103.63c.3.05.39,0,.19-.12l-.53-.29-.45-.22c-.15-.1-.32-.24-.5-.37a5.21,5.21,0,0,1-1.16-.74A5.15,5.15,0,0,0,67.2,103.63Z"/><path class="cls-1" d="M63.39,93.13c-.2-2-.35-4.27-.71-3a33.53,33.53,0,0,0,.6,4.56c.15,1.68.26,2.94.08,2.69.12.29.19,1,.41,1.63a5.33,5.33,0,0,0,.8,1.77A32.44,32.44,0,0,1,63.16,93C63.24,92.39,63.32,93,63.39,93.13Z"/><path class="cls-1" d="M173.37,44.85c-.24.23-.51.44-.73.7C172.82,45.34,173.1,45.12,173.37,44.85Z"/><path class="cls-1" d="M251.43,59.59a4.78,4.78,0,0,0-.2,1.1A4.45,4.45,0,0,0,251.43,59.59Z"/><path class="cls-1" d="M258.74,44.51l-.64.73A5.94,5.94,0,0,0,258.74,44.51Z"/><path class="cls-1" d="M173.37,44.85c.31-.3.68-.53,1-.8s.72-.47,1.11-.65C175.6,43.2,174.29,44,173.37,44.85Z"/><path class="cls-1" d="M65.52,70.63c-.11.56-.18,1-.24,1.46l.27-1.36A.4.4,0,0,1,65.52,70.63Z"/><path class="cls-1" d="M136.11,44.24c-.23-.13-.46-.27-.7-.38s-.44-.12-.65-.17C135.22,43.86,135.68,44,136.11,44.24Z"/><path class="cls-1" d="M106.61,45.18a2.48,2.48,0,0,0,1.23.57,13,13,0,0,1-1.37-.94S106.47,45,106.61,45.18Z"/><path class="cls-1" d="M68.62,63.48l-.06.22,0,0c-.07.2-.14.43-.2.67.06-.23.13-.46.2-.67l0,0Z"/><path class="cls-1" d="M156.67,42.3a.81.81,0,0,0,.29.11S156.85,42.34,156.67,42.3Z"/><path class="cls-1" d="M101.9,99.93s0,0,0,0C101.81,99.72,101.75,99.67,101.9,99.93Z"/><path class="cls-1" d="M67.42,102.92l.53.14c.07,0,.14-.07.16-.12Z"/><path class="cls-1" d="M286.08,42.59l-.11-.07C285.26,42.16,285.66,42.37,286.08,42.59Z"/><path class="cls-1" d="M452.92,71.45c.6-1.6.26-.25.07.9s-.3,2.08.4-.35C453.13,72.44,454.26,67.44,452.92,71.45Z"/><path class="cls-1" d="M65.76,69.77l.33-1.38C65.92,69,65.83,69.44,65.76,69.77Z"/><path class="cls-1" d="M453.39,72h0l.17-.49Z"/><path class="cls-1" d="M340.21,23a4.79,4.79,0,0,0,.06-.75A2.46,2.46,0,0,0,340.21,23Z"/><path class="cls-1" d="M303.82,46.58a10.71,10.71,0,0,1,.92.87A8.1,8.1,0,0,0,303.82,46.58Z"/><path class="cls-1" d="M348.88,44.35a19.15,19.15,0,0,0,1.82-.63l-.29.07A9.8,9.8,0,0,1,348.88,44.35Z"/><path class="cls-1" d="M376.38,48.06l-.46.26-.47.35-.51.38-.5-.46-.22-.2.2.21.46.46.57-.39Z"/><path class="cls-1" d="M178.12,105.84a6.77,6.77,0,0,1-1.42,0C177.2,105.93,172.79,106.61,178.12,105.84Z"/><path class="cls-1" d="M65.68,70.65a2.62,2.62,0,0,1,.08-.88l-.2,1C65.58,70.82,65.61,70.85,65.68,70.65Z"/><path class="cls-1" d="M349.28,41.85a15.59,15.59,0,0,1,2.35-.65,22.46,22.46,0,0,1,2.39-.49,17.55,17.55,0,0,0-2.26.45A16.19,16.19,0,0,0,349.28,41.85Z"/><path class="cls-1" d="M333.54,121.06l-.23-1.06A9.09,9.09,0,0,0,333.54,121.06Z"/><path class="cls-1" d="M368.36,42.24c.79.39,1.58.9,2.42,1.35a5.57,5.57,0,0,0,.53.22,16.33,16.33,0,0,0-1.45-.83A14.41,14.41,0,0,0,368.36,42.24Z"/><path class="cls-1" d="M176.69,105.81h0Z"/><path class="cls-1" d="M152.45,104.32a14.14,14.14,0,0,0,2.15-.91c.39-.21.52-.32.53-.39s-.36-.12,0-.43a25.11,25.11,0,0,1,3.19-1.62c.21,0,.06.27.91-.19a19.23,19.23,0,0,0,3.81-3.6L161,96.67a17.58,17.58,0,0,0,1.6,3.43c.05.2.31.66-.08.18a16.7,16.7,0,0,0,2.26,2.63,12.09,12.09,0,0,0,3.54,2.29,10.91,10.91,0,0,0,2.09.64,10.6,10.6,0,0,0,2.1.26,11.24,11.24,0,0,0,2-.06,11.06,11.06,0,0,0,1.69-.26,2.77,2.77,0,0,1,.55,0c-.7-.1-.82-.28-.7-.43a25.63,25.63,0,0,0,2.67-.5,6.65,6.65,0,0,1,1.76-.31,10.27,10.27,0,0,0-1.84.59c.69-.18,1.37-.37,2-.59,1-.11.28.15-.66.4a11.29,11.29,0,0,0-2.11.59,26.35,26.35,0,0,0,6.17-2,17.63,17.63,0,0,0,4.8-3.28c.18-.08,0,.27-.5.72a11.32,11.32,0,0,1-1.73,1.37c-.61.4-1.14.69-1.27.79s.16,0,1.15-.49a21.25,21.25,0,0,1-4.65,1.95c1.9-.38,1.18-.14.41.13s-1.58.49.21.23a18.32,18.32,0,0,0,4.5-2.11,13,13,0,0,0,1.54-1.17c.24-.21.47-.43.69-.66a7.24,7.24,0,0,0,.71-.85l-2.12.08a18.23,18.23,0,0,0,1.78,1.76,21.41,21.41,0,0,0,2.63,2c1.41.61-.29-.48,1.11.1a22.47,22.47,0,0,0,5,1.72c1.23.27,2.09.37,2.89.49a14.88,14.88,0,0,0,6.14-.73,38,38,0,0,1,6.83-2.3l-1.44.85a23.74,23.74,0,0,0,4.54-1.73,39,39,0,0,1,4.42-1.79l-.79,0,.39.24-.42-.19.85,0c-1.3.67-4,1.66-3.22,1.4a12.69,12.69,0,0,0,3.28-1.28l-1-.06a17.23,17.23,0,0,1,2.52,1.11l.44.61a59.63,59.63,0,0,0,9.67,3.9,17.65,17.65,0,0,0,5.6.83,4.59,4.59,0,0,0,3.06-1.22,4.07,4.07,0,0,0,.54-.75,7.12,7.12,0,0,0,.31-.83,5.62,5.62,0,0,0,.1-1.61,5.62,5.62,0,0,1,.15.9c0,.2.17,0,.16-1-.07-.81-.27-1.59-.38-2.2l-.2-1-.11-1a14.1,14.1,0,0,1,.14-4,12,12,0,0,1,1.31-3.78A11.1,11.1,0,0,1,245.2,89a8.42,8.42,0,0,1,1.31-1.32l-1.82-1.31a25.32,25.32,0,0,0-1.07,5.89,15.89,15.89,0,0,0,.66,5.85,9.93,9.93,0,0,0,2.18,3.17c.6.66,1.13,1.25.35.63a6.65,6.65,0,0,0,.88.77,2.68,2.68,0,0,0,.49.33c.21.11.19.06.12,0s-.46-.49.36-.06,1.62.8,1.85.94.06.16-.61,0a13,13,0,0,0,2.69.62c1,.14,1.89.17,2.91.27,2,.16,4.2.32,6.41.39a57.26,57.26,0,0,0,6.54-.17,36.17,36.17,0,0,0,5.65-1c-.4.17-.82.28-1.23.43a14.51,14.51,0,0,0,5-2.16c.59-.4,1.18-.76,1.83-1.26.33-.24.7-.47,1.09-.76s.81-.61,1.3-1l-.68.61a27.81,27.81,0,0,0,2.51-2.19l-1.44-.34a13.38,13.38,0,0,0,3.92,5.81,8.94,8.94,0,0,0,3.22,1.66l.89.19a7.51,7.51,0,0,0,.9.07,8.67,8.67,0,0,0,1.77-.1,46.14,46.14,0,0,0,6.18-1.46,31.1,31.1,0,0,0,5.49-2.23l-1.32-.19a15,15,0,0,0,2.33,2c.81.29,3.22,1.68,5.72,2.54a29.17,29.17,0,0,0,3.46,1,4.1,4.1,0,0,0,1.89.18l2,.49,1.44.3c.83.18,1.46.33,2.17.43s1.5.24,2.67.38l2.07.17c.81.07,1.74.13,2.84.15a20.92,20.92,0,0,0,2.57-.12l-1.21-1.07c.23,1.06.51,2.11.77,3.75l-.3.11.88,3.83,0,2.12.54,2.66a6,6,0,0,1-.14-2.14c.41,2.07.85,4.61,1.19,6.66a36.88,36.88,0,0,1,.58,3.66,33.25,33.25,0,0,0,1.78,4.85c.21.4.38.8.64,1.2l.42.6.21.3.11.15.19.19a2,2,0,0,0,1.23.57,2,2,0,0,0,1.25-.33,4.39,4.39,0,0,0,1.16-1.17,2.83,2.83,0,0,1-1,1.22,2.32,2.32,0,0,1-.89.38,2,2,0,0,1-1.27-.18,2.57,2.57,0,0,1-.78-.63l-.37-.49.34.45.08.1.14.14a2.16,2.16,0,0,0,2,.59,3,3,0,0,0,1.35-.79,3.23,3.23,0,0,1,.59-.53,1.35,1.35,0,0,0,.45-.45,10.65,10.65,0,0,0,1.11-2.14c-.36.59,0-.41,0-.54,1.27-2.2,3.08-7.5,4.14-11.46l0,.82c1.75-5.71,3.27-12,4.75-18.5l-1.55,1a15.44,15.44,0,0,0,2.65.18,18.85,18.85,0,0,0,2.61-.21c-1.59.17-2.21,0-2.1-.08a10.2,10.2,0,0,1,2.17-.44c.35,0,.71.11,1.07.13.79-.29.13-.16-.32-.1s-.67.09.94-.43,2.09-.6,2-.46a1.47,1.47,0,0,1-.48.35,11.88,11.88,0,0,1-1.13.48,17.7,17.7,0,0,0,3.69-1.66c.26,0-.55.47-.73.69a21.68,21.68,0,0,0,4.58-3.23l-2.4-.37a10,10,0,0,0,1.26,1.9,8.17,8.17,0,0,0,1.26,1.24l.1.23a17.77,17.77,0,0,0,4.89,3.37,19.81,19.81,0,0,0,4.59,1.49,27.51,27.51,0,0,0,9.24,0c.1-.27,2.79-.63,4.73-1.35A47.77,47.77,0,0,0,405,99a12.46,12.46,0,0,0,1.15-.87l-1.71-.43c.54,1,.61.92.66.91s.06-.1.54.56a10.18,10.18,0,0,0,1.54,2.57l.75,1c.08.11-.12,0-.68-.61a17,17,0,0,0,3.67,3.28,11.45,11.45,0,0,0,3.84,1.65c.35.07.69.15,1.05.2l1.12.07a7.92,7.92,0,0,0,1.14,0,10.59,10.59,0,0,0,1.2-.11,18.23,18.23,0,0,0,5.72-1.71c-1,.34-2.09.66-1.56.38,1.61-.58,3.55-1.59,3.4-1.37l-.38.25a19,19,0,0,0,3.68-2.91l-1.22.09a33.35,33.35,0,0,0,6.41,3.83,23.07,23.07,0,0,0,7.34,2,16.34,16.34,0,0,0,7.24-1,10.41,10.41,0,0,0,5.23-3.89l-.32.43a7.62,7.62,0,0,0,1.47-4.6,20.37,20.37,0,0,0-.57-4.38c-.7-3.86.64,2.28.24-.61-.55-2.24-1-4.18-1.36-6a37.72,37.72,0,0,1-.57-5.15,40,40,0,0,1,.87-9.89c.53-1.31,1.15-3.14,2.07-5.16a40.55,40.55,0,0,1,3.61-6.38c.36-.54.76-1,1.15-1.57L463,58a22.58,22.58,0,0,0,2.42-3.45l.26-.48.22-.54a5.34,5.34,0,0,0,.33-1.2,3.54,3.54,0,0,0-.79-2.73,5.13,5.13,0,0,0-.91-.79,6,6,0,0,0-.88-.52,16.19,16.19,0,0,0-1.56-.7l.4.32a19.65,19.65,0,0,1-3.11-1l.91.78c0-.09-.09-.34-.16-.57a2.1,2.1,0,0,0,.09.6l-.86-.74c.49.19.91.34.15.18l-.18,0,.77.66a13.1,13.1,0,0,1-.45-1.34c-.14-.49-.27-1-.39-1.5-.24-1-.43-2-.61-3.09-.35-2.09-.59-4.23-.77-6.38s-.3-4.32-.39-6.5l-.09-3.3a10.38,10.38,0,0,0-.71-3.69,3.79,3.79,0,0,0-1.55-1.87,3,3,0,0,0-1.42-.38,3.84,3.84,0,0,0-1.28.24,8.67,8.67,0,0,0-3.11,2.4,33.66,33.66,0,0,0-3.89,5.72,102.89,102.89,0,0,0-5.61,12.13,27,27,0,0,0-1.67,6l1.66-.54c-1-.52-2.28-1.31-5-2.7.77.21,1.53.44,2.29.71a36.21,36.21,0,0,0-7.46-2.61,22.4,22.4,0,0,0-8.07-.42,16,16,0,0,0-4,1.07,15.68,15.68,0,0,0-3.6,2,20.64,20.64,0,0,0-5.34,6l2-.18a25.31,25.31,0,0,0-3.4-3,28,28,0,0,0-3.73-2.37,9,9,0,0,1,1.88.94,20.83,20.83,0,0,0-5.5-2.91,13,13,0,0,0-4.08-.92c-2-.39-.44-.28-1.7-.55a16,16,0,0,0-4.82,0c-1.61.18-3,.55-3.76.61a6.06,6.06,0,0,1,1.26-.38,33.52,33.52,0,0,0-4.55,1.4c-1.57.63-2.64,1.24-1.8,1a30.36,30.36,0,0,0-6.13,3.79l1.58.12a28.8,28.8,0,0,0-5.05-3.67c-1.22-.45-3.12-1.41-5-1.93-.46-.13-.89-.29-1.32-.38l-1.17-.21A3.35,3.35,0,0,0,361.9,41c.1-.1-.38-.23-1.22-.36a11,11,0,0,0-1.5-.16h-1.85a12.41,12.41,0,0,0-2,.18c-.67.1-1.34.17-2,.31-1.24.33-2.34.64-3.08.88.94-.48-2.59.78-1.5.19l-2,.74-1.66.84a12.84,12.84,0,0,0-1.86,1.08l1.76.87c0-.12-.09-.13-.11,0-.3-6.24-1.86-12.51-1.52-16.1L342.51,22a8.49,8.49,0,0,0-.17-1.07,3,3,0,0,0-.66-1.33,1.86,1.86,0,0,0-1-.56,2.06,2.06,0,0,0-1,0,3.59,3.59,0,0,0-1.16.61,14.88,14.88,0,0,0-2.63,2.88,112.48,112.48,0,0,0-7.31,12.08c-.12-.25,1.11-2.48,2.35-4.6s2.52-4.13,2.21-4.09c-1.92,3.11-3.3,5.76-4.62,8.32l-4,7.92.82-.48a23.84,23.84,0,0,0-4.21.43c-1.13.21-.82.1-.14-.11s1.78-.41,2.17-.49a36.56,36.56,0,0,0-8.9,2.5,44.58,44.58,0,0,0-7.72,4.14l1.54.39a14.42,14.42,0,0,0-5.54-5,2.48,2.48,0,0,1,.52.23,8.47,8.47,0,0,1,1,.6A18.35,18.35,0,0,0,302,43.12c-.64-.31-1.09-.49-1.05-.36.47.22,1,.41,1.42.65,1,.8-.4,0-2.2-.57a16.09,16.09,0,0,0-4.15-.9c.67,0,.54-.13,0-.28-.26-.08-.62-.17-1-.26s-.85-.13-1.28-.2L292.51,41a6.61,6.61,0,0,1-.82-.11c-.34-.08-.21-.19.86-.35-1,0-2.34.07-2.1.21-1.52,0-2,0-.47-.28-1.29.09-2.17.17-2.75.23l.65.16a20.77,20.77,0,0,0-2.16-1c-.65-.27-1.46-.67-3.27-1.4a9.49,9.49,0,0,1,1.54.37c-1.22-.43-2.45-.81-3.9-1.2a41.49,41.49,0,0,0-5.24-1.07c.26,0-.22-.17,1.05,0a19.79,19.79,0,0,0-10,1,20.14,20.14,0,0,0-4.4,2.36,23.78,23.78,0,0,0-4.08,3.78c.6-1.05.14-.55-.56.23s-1.45,2-1.74,2a33.19,33.19,0,0,0-2,3.87c.31-.49.58-1,.93-1.48-1.78,3.36-2.55,6.62-3.54,9.66.16-.92.44-1.8.65-2.71-.34,1.12-.69,2.24-.94,3.38s-.57,2.27-.75,3.42c.27-1.29.68-2.55,1-3.83-.37,1.86-.23,1.78-.16,1.85s0,.25-.49,2.67a18.3,18.3,0,0,0-.46,2.1l.47-.07a7.47,7.47,0,0,1-.5-3.3h0a43.17,43.17,0,0,1-.13-6.43c.11-.72.42.57.49.11a38.74,38.74,0,0,0-.79-5.39,8.39,8.39,0,0,0-1.49-3.07,5.44,5.44,0,0,0-2-1.64c.69.4.85.3.66.09a8.3,8.3,0,0,0-1.51-.64c-.82-.38-1.3-.58-1.54-.66s-.22-.15-.06-.19a7.17,7.17,0,0,0-1.48-.28,4.29,4.29,0,0,0-.62,0c-.19,0,0,.09.13.16s.45.07-2.67,0a6.94,6.94,0,0,1,1.28-.12,28.16,28.16,0,0,0-7.55,1c-2.41.57-4.69,1.35-7,2.09l.42.07A18,18,0,0,0,223.12,45c-.93-.75,1.59.5,2.65,1.3l-.69-.12c.55-.2.76-.31.16-.22l-.21.07.84.15c-3.61-2.5-7.78-3.56-11.95-4.22a57.08,57.08,0,0,0-12.28-.18c.49,0,1-.09,1.48-.09-.87.47-4.34.36-7.74,1l.3,0a15.51,15.51,0,0,0-2.06-.64c1,.25,1.33.12,1.06.09a33.85,33.85,0,0,0-8.53-1.75,26.07,26.07,0,0,0-5.07.12,16.23,16.23,0,0,0-5.58,1.71c.28-.22.6-.37.9-.57a11.3,11.3,0,0,0-3.65,2.21,12.6,12.6,0,0,0-2.85,3.88l1.1-.16a23.77,23.77,0,0,0-2.38-2.23c-.89-.57-2.56-1.67-1.66-.83a17.15,17.15,0,0,0-6.49-3.25,14.52,14.52,0,0,0-7.07,0,17.77,17.77,0,0,0-6.15,2.92,36,36,0,0,0-5,4.38l.76,0a24.12,24.12,0,0,0-1.61-2c.83.79,1.94,2,1.34,1.27a22.41,22.41,0,0,0-6.46-5.07c.45.53.9.62,2.2,1.75a33.82,33.82,0,0,0-4.77-2.29c3.39,1.3.18-.46-1.38-1,.24.14-.31.07-.2.17-2-.7-2.27-.49-2.64-.44a4.16,4.16,0,0,1-1,.11c-.27,0-.62,0-1.08,0s-1,0-1.75.07l.29-.15A23.34,23.34,0,0,0,119.84,43c-.5.07,0-.19.66-.5a7.72,7.72,0,0,0,1.49-.72A19.68,19.68,0,0,0,117.68,44c-1.31.88-2.54,1.76-3.78,2.57.5-.48,1.21-.95,1.88-1.46s1.41-.93,2-1.32a18.65,18.65,0,0,0-2.92,1.59c-.68.43-1.21.88-2.17,1.61l.19-.14c-.82.6-1.57,1.3-2.35,1.94l1.09.23a12.58,12.58,0,0,0-1.37-2.28c.27.41.54.82.78,1.25a31.53,31.53,0,0,0-4.76-4.4,19.33,19.33,0,0,0-6.7-3.16c2.57.71,2.79.83,2.45.61s-1.29-.59-1-.67l-1.06-.47-1-.38c-.6-.23-1-.38-.66-.33-2.61-.41-4.28-1.23-8-1.13a11,11,0,0,0-1.4-.1c-.61-.05-1.14,0-.84-.17-3.5.29.84.11.54.27a17.47,17.47,0,0,0-8.85,2.6A20.22,20.22,0,0,0,73,49.23c-.69,1.47-1.14,2.68-1.53,3.73l-.92,2.84-1.79,6.37c-.75,1.87.15-1.68.15-1.68-.39,1.08-.73,2.07-1,3l0-.06a21.75,21.75,0,0,0-.81,2.68c-.22.89-.42,1.79-.62,2.76.06-.62-.16,0-.48.87-.52,2.41,0,1.68-.83,4.82a17.94,17.94,0,0,1,.12-2.48c-.53,2.86-.88,5.7-1.25,8.68-.29.76,0-1.83.1-2.89-.55,3.33-1.09,8.7-.86,9.76.09-.72.18-1.43.3-2.14-.12,1.22-.3.61-.25-.3.12-2.9.64-4.13.75-4.27L63.84,83a30.73,30.73,0,0,0,1-5.54c.33-2.38.72-5,1.22-7.11l0,1.84c.2-1.46.42-2.91.66-4.36.34-.88.71-1.44.26.62a25,25,0,0,0,.72-2.65,9.24,9.24,0,0,1,.67-2.13v0l.13-.32c.12-.27.1-.14,0,.13l.78-2.9c-.09.59.43-.39-.18,1.35,1.83-5,2.54-8.3,3.67-10l-.16.42.85-2,.48-1.05c.2-.46.17-.51.12-.51s-.15,0-.08-.23a9.09,9.09,0,0,1,1-2.11,14.64,14.64,0,0,1,1.37-1.35,17,17,0,0,1,1.45-1.21l.27-.73c.49-.6,1.71-1.48,1.56-1.22a9.39,9.39,0,0,1,.84-.76c.08-.08,0,0-.13,0s-.62.31,0-.2c.42-.2.84-.48,1.32-.7s1-.43,1.53-.62,1.1-.33,1.65-.46,1.12-.2,1.66-.27l1.55-.09c.48,0,.93,0,1.32,0a3.61,3.61,0,0,1,1.53.31c.67-.06-.21-.18-.76-.26s-.78-.14,1.2,0c1.05.6,4.58.39,7.74,1.68-1.07-.06-4.08-1-.92.11a6.46,6.46,0,0,1,1.87.43,13.94,13.94,0,0,1,2.24,1,27.69,27.69,0,0,1,4.09,2.71c.06,0,.24.05.52.23s.64.5,1.06.89a12.67,12.67,0,0,1,2.6,3.44l.22.44.35-.32L112.92,48l1.74-1.43c-.07.16,1.71-1.22,4.22-2.47A21.54,21.54,0,0,1,123,42.5a17.62,17.62,0,0,1,3.85-.59l-.12.07a7.7,7.7,0,0,1,3.36-.17,16.87,16.87,0,0,1,5,1.44c-.11.07-.3.05-.67,0s-.93-.28-1.77-.5a18.91,18.91,0,0,1,2.79,1.16,11.54,11.54,0,0,1,3.2,1.78c-.26-.08-.52-.17-.78-.24a22.57,22.57,0,0,1,4.28,3.89l.52.63.49-.58a20.55,20.55,0,0,1,5.77-4.92c.06-.19-.94.19-1.34.3-.21,0-.28,0,0-.28A9.47,9.47,0,0,1,149.71,43c.26,0,.52.12-.74.89a9.11,9.11,0,0,1,1-.6,6.91,6.91,0,0,1,1.41-.61,19.25,19.25,0,0,0-1.95,1.14A10.17,10.17,0,0,0,151,43a3.48,3.48,0,0,1,1.29-.59c0,.1.36,0,.68,0s.62-.08.5,0a10,10,0,0,0-2.28.72,13.18,13.18,0,0,1,3.16-.8,10,10,0,0,1,2.28,0c-.18-.1,0-.3,1.56-.2,2,.26,2.32.52,2.43.59s0,.16,1.11.58a10.7,10.7,0,0,1,2,.76c.71.32,1.29.64,1.4.52a5.21,5.21,0,0,1,1.45,1.2A18.8,18.8,0,0,1,170,48.53l.7.75.42-.9c1-2.13,2.5-3.58,1.43-2.69l-.36.4.21-.27h0a10,10,0,0,1,4.11-3.21,15.14,15.14,0,0,1,5.26-1.19,35.64,35.64,0,0,1,10.64,1.3l0,.09a30.28,30.28,0,0,1,3,.88l.13,0,.13,0c3.33-.64,6.81-1.11,9.08-1.3,1.24-.1,2.93.16,2.39.26,1.59,0,2.48,0,3.54.05a14.35,14.35,0,0,1,1.83.2,24,24,0,0,1,2.71.52c-1.58-.22-1.32-.13-1.2-.09s.11,0-2.05-.3a39.08,39.08,0,0,1,4.52.92c1.25.34,2.55.63,4.63,1.33-.69-.14-.15.13.76.6a25.4,25.4,0,0,1,3,1.71l.41.3.42-.15.5-.18-.51.13-.49.13-.3-.27a13.66,13.66,0,0,0-1.84-1.3,13,13,0,0,1,1.94,1.17l.29.22.35-.11c1.25-.39,2.4-.8,3.59-1.11-.31.21-.62.4-.92.62a58.82,58.82,0,0,1,11.21-2.2,10.05,10.05,0,0,1,4.76.78A5.37,5.37,0,0,1,247,48.86c.46.92.2-.12-.34-1-.15-.22-.27-.46-.42-.64s-.28-.34-.37-.46-.18-.31.18,0a7.69,7.69,0,0,1,1.86,4.8c.11,1.59,0,2.89,0,3.49a36,36,0,0,0,.08,5.08c.06.64.14,1.27.25,2.07a10.62,10.62,0,0,0,.8,3.12l.89,2,.47-2.21.13-.63c-.25.68-.7,1.3,0-2.85,1-3.82,1.64-4.55,1.12-2.14a4.3,4.3,0,0,1-.39,1.29c-.25,1.24-.48,2.88-.07,1.39l0-.52c.27-.93.74-2.69,1.14-4.05s.81-2.3.71-1.67c.81-2.8.18-1.26-.52.8.41-1.18.75-2.23,1.16-3.18l.55-1.41c.19-.46.41-.89.61-1.33l.62-1.33.76-1.32a23.38,23.38,0,0,1,1.92-2.82c-.53.59-1,1.14-.6.48a25.27,25.27,0,0,1,2.42-2.78c.51-.52.71-.78.9-1s.29-.34.6-.64a6.61,6.61,0,0,1,.66-.58l1.24-.83c1.3-.59,1.13-.35,1.17-.31s.27-.16,2.61-1c3-.61.67.12-.41.55a14.07,14.07,0,0,1,6.05-.85,26.89,26.89,0,0,1,4.69.83,22.11,22.11,0,0,0-2.34-.33,19.05,19.05,0,0,1,3.68.72c-.41-.21-.84-.38-1.26-.57a9,9,0,0,1,2.44.83c1.43.34-.94-.77,1.89,0a31.89,31.89,0,0,1,5,2.57l.16.12h.34a2.59,2.59,0,0,1,.8.09l-.79,0h-.32l-.25-.16c-1.86-1.14-1.71-.89-1.51-.7s.33.35-1.81-.65a18.53,18.53,0,0,1,3.1,1.66h0l.83.21h0s0,0,0,0l-.84-.21a4.55,4.55,0,0,1-.51-.25l.46.32.3.23h.6c1.2,0,1.94,0,2.46-.1a11.23,11.23,0,0,0,1.16-.12,11.79,11.79,0,0,1,1.32-.14c.31,0,.69,0,1.17.06a11.47,11.47,0,0,1,1.73.23c-.76.06,1.27.53,2.16.82-1.1-.34-1.37-.43-1.08-.47a9,9,0,0,1,2.19.36c.86.36,1.53.63,2,.91s.93.45,1.27.64a9.78,9.78,0,0,1,2,1.26,9.84,9.84,0,0,0-.87-.7,8.2,8.2,0,0,0-.92-.64,10.87,10.87,0,0,1,4.08,3.26c0,.13-.36-.33-.72-.68s-.66-.63-.34-.3a7,7,0,0,1,1.56,1.83l.32.56.54-.34a77.42,77.42,0,0,1,7.44-3.77c1.82-.59.29.22,1.88-.28a17.48,17.48,0,0,1,4.34-1.25c.58-.09,1.16-.17,1.82-.23s1.48-.16,2.3-.17l.88,0,.33-.69.4-.85c-.85,1.16-.94,1.41.47-1.8L326.12,43l-.24.48h-.61a22.66,22.66,0,0,0-5.07.81,23.26,23.26,0,0,1,4.95-1,26.77,26.77,0,0,0-6.36,1.17c1.15-.42,1.68-.58,1.77-.63s-.26,0-.85,0c1.86-.26,3.69-.69,5.58-.77h.33l.12-.25A39.08,39.08,0,0,1,328,38.54l.46.38c1.5-2.51,2.69-4.82,4-7.28a54.84,54.84,0,0,1,5.13-8.06c-.51.6-1,1.23-1.5,1.88A12.41,12.41,0,0,1,337.79,23a14.91,14.91,0,0,1,1.37-1.46,5,5,0,0,1,.71-.55,1.07,1.07,0,0,1,.42-.17c0,.06,0,.07,0,0l0,0-.06.08,0,0a.22.22,0,0,0,0,.06,4.75,4.75,0,0,1,.08,1.24c.13-.14.49,5.56,1,6.22l.07,3.42c.52,6.14,1.25,6.94,1.92,12.83-.44-1.75-.25,1-.88-3a19.27,19.27,0,0,0,.58,3.76c0,.1,0,.21,0,.38l.15,1.16,1.16-.51c.66-.29,1.78-.91,2.94-1.52a19.21,19.21,0,0,1,3.23-1.21,10.21,10.21,0,0,1,3.08-1.08c.24,0,0,.1,0,.1,0-.18,3.36-.58,1.43-.57a40.61,40.61,0,0,1,5,0,25.57,25.57,0,0,1,2.82.37l1.44.28,1.41.41a19.92,19.92,0,0,1,8.85,5.23l.36.41.57-.34.51-.31a30.08,30.08,0,0,1,5.7-3.52,23.51,23.51,0,0,1,6.07-1.94c-.23.1,0,.08-.71.2l1.64-.23c.45-.05.83-.09,1.14-.14l1.51-.23a10.9,10.9,0,0,1,4.89.41c1.46.53.67.37-.25.17s-2-.36-1.06-.13c.35.39,2.1.68,4.17,1.4A19.07,19.07,0,0,1,405,47.55l-.82-.51A49,49,0,0,1,409,51l.86.85.55-1a17.47,17.47,0,0,1,3.78-4.77s-.14.2,0,.09a13.35,13.35,0,0,1,2.33-1.92A15,15,0,0,1,420,42.73a18.22,18.22,0,0,1,7.89-.37c-1.54,0-2.21-.14-1.33.2,1.07.11.93,0,1.06-.08s.54-.2,2.68.33c1.37.46,4.26,1.77,4.5,2.23a31.83,31.83,0,0,0-3.82-1.45c1.88.92,5,1.88,6.78,3.06h-.31c.46.26.9.53,1.21.72l1,.66.39-1.13c1.61-4.72,1.46-5.44,3.92-11.22l-.39.61c1.16-3.6,1.44-2.81,2.85-6.28l.88-.81a36.19,36.19,0,0,1,2.88-5,9.35,9.35,0,0,1,2.48-2.52,1.74,1.74,0,0,1,1.47-.27,2,2,0,0,1,1,1,3,3,0,0,0-.61-.7,1.32,1.32,0,0,0-.87-.26,3.78,3.78,0,0,0-2.06,1.3,21.52,21.52,0,0,0-3.11,4.58,25.93,25.93,0,0,1,3-4.11,5.36,5.36,0,0,1,1.79-1.38,1.17,1.17,0,0,1,1,0,1,1,0,0,0-.93,0,4.9,4.9,0,0,0-1.13.64,2.54,2.54,0,0,1,1.66-.9c.58,0,1.16.67,1.46,1.54a9.88,9.88,0,0,1,.52,3l.16,3.52c-.4-.42-.32,2.8,0,6.57s1,8.07,1.2,9.93a21.15,21.15,0,0,0,.85,2.55l.19.45.48.13c.94.25,1.89.49,2.77.8a5.78,5.78,0,0,1,2.16,1.13.92.92,0,0,1,.25.69,2.65,2.65,0,0,1-.28,1,12.05,12.05,0,0,1-1.5,2.35c-1.19,1.51-2.71,3.11-4,4.95a34.74,34.74,0,0,0-3.37,6c1-1.56.73-.86.26.17s-1,2.47-.58,2.28c-.38,1.14-.63,1.93-.77,2.46s-.25.8-.29.9A34.62,34.62,0,0,0,452,79.15c-.27,1.74,0-2.32-.12-2.1-.27,2.66-.27,3.23-.35,3.56a6.05,6.05,0,0,0-.2,2.23c.09-.37.19.09.29,1l.48,3.82c-.13-1.41-.21-2.83-.22-4.26.46,3.68.72,5.23.87,6.82.09.79.19,1.58.37,2.6s.47,2.28.75,4c-.13-.7-.33-1.42-.52-2.14.34,1.74,1.12,5.19-.66,7.18a10.26,10.26,0,0,1-3.53,2.41c-.63.3-1.25.48-1.79.72s-1.06.3-1.47.44a1.8,1.8,0,0,1-.76-.06c-.1-.08.09-.06.82-.23-5.13.83-11.43-1.44-15.8-4.68l-.77-.57-.63.68a14.34,14.34,0,0,1-3.53,2.66,13.77,13.77,0,0,1-3.68,1.39l.57-.31a11,11,0,0,1-4.56.85c.1-.07.62-.18-.1-.15a9.78,9.78,0,0,1-2.48-.19,9.08,9.08,0,0,1-3.1-1.48,11.14,11.14,0,0,0,1.56.72,14.88,14.88,0,0,1-4.2-3.42,22.44,22.44,0,0,1-2.75-3.84l-.66-1.17-1,.76a38.48,38.48,0,0,1-8.08,4.85c-.08-.21-1.67.33-3.68.91a59.36,59.36,0,0,1-6.08,1.43l.1-.08a45.41,45.41,0,0,1-6.48.77,21.89,21.89,0,0,1-5.77-.57,16.66,16.66,0,0,1-5.13-2.24,14.32,14.32,0,0,1-2.24-1.82,11.56,11.56,0,0,1-1.83-2.29L365,96.26l-.86.84-.86.84a16.89,16.89,0,0,1-4.83,2.5,16,16,0,0,1-3.39.69,15,15,0,0,1-3.69-.08l-1.15-.19L350,102c-1.19,5.09-2.59,10.56-4,14.89.46-1.35.27.32-.15,1.92-.68,2.08-1.48,5.87-1.77,5.41l.25-.74c-.89,1.41-2.15,5.8-3.74,8.67.07.24.13.48.18.73a4.71,4.71,0,0,1-1,1.05l-.09,0h0a.51.51,0,0,1,0,.2s0,.1,0,0a1.2,1.2,0,0,1,.09-.19c0-.07,0,0,0,0v0a2.56,2.56,0,0,1-.17-.27l-.43-.7-.37-.85c-.28-.55-.45-1.21-.69-1.82a79.76,79.76,0,0,1-2.1-8,72.35,72.35,0,0,1-1.88-12.82c-.13-.67-.24-1.4-.36-2.18l-.15-1h-1c-1.63,0-3.4.1-4.91.1l.13-.28c-1.52-.09-2.84-.16-4.08-.32l-1.83-.2-1.79-.27a44.78,44.78,0,0,1-8.45-2.09c.49.12,1,.22,1.48.3-2-.65-3.21-1-4.43-1.36a9.37,9.37,0,0,1-3.81-2,.64.64,0,0,1-.06-.17l0-.27-.94.13-.95.13a28.39,28.39,0,0,1-5.08,1.92c-.88.24-1.77.47-2.67.65-.45.09-.9.19-1.35.27l-.68.12c-.22,0-.41,0-.61.06a6.31,6.31,0,0,1-4.46-1.15A11.3,11.3,0,0,1,284.88,98c.11.07.28.22.87,1.14a12.07,12.07,0,0,1-1.18-2.46l-.68-2-1.52,1.51a26.26,26.26,0,0,1-5,3.81l-1,.61c-.32.16-.58.3-.78.42-.4.24-.53.39-.27.39-.05-.07-.5.07-1.23.29s-1.71.53-2.84.81a38.22,38.22,0,0,1-7.11.91l.62-.29c-1.67.18-2.55.26-3.59.28a41.58,41.58,0,0,1-4.63-.2c-1.12-.15-1-.32.52-.1a27.87,27.87,0,0,0-3.43-.32,8,8,0,0,1-3.69-1,10.27,10.27,0,0,0,1.53.42,10.09,10.09,0,0,1-2.85-1.41,7.36,7.36,0,0,1-1.53-1.33,8.27,8.27,0,0,1-1.49-4.12,8.42,8.42,0,0,1,.16-3.14,11.32,11.32,0,0,1,.45-4.77c.17-.26,0,.53,0,.93.13-.5.26-1,.39-1.4l.79-2.44-2,1.58a10.49,10.49,0,0,0-2.58,3.05,13.7,13.7,0,0,0-1.27,3,22.07,22.07,0,0,0-.7,5.94,1.63,1.63,0,0,0-.09.79,16.73,16.73,0,0,1,.63-6.81,12,12,0,0,1,1-2.32c-.11-.06-.7.9-1,1.51s-.53.8,0-1a16.06,16.06,0,0,0-1,6.73,14.52,14.52,0,0,0,.18,1.87,16,16,0,0,0,.32,1.82l.18.88.13.74a3.89,3.89,0,0,1,0,1.29.62.62,0,0,1-.18.33.85.85,0,0,0,.05-.27,1.61,1.61,0,0,1-.87,1.17,6.34,6.34,0,0,1-2.76.1c-.2-.13-1.28-.31-2.57-.68a38.84,38.84,0,0,1-3.69-1.24c.06.33-2.41-.72-.17.44a11.58,11.58,0,0,1,1.65.56c.29.1.63.2.83.25l-.14,0a20.11,20.11,0,0,0,4.81,1,12.41,12.41,0,0,1-5.3-1.1c-1-.17-2.2-.42-2.84-.6-2.49-1.39-7.22-4.08-7.73-4.68l-.38-.2-.52-.28-.49.22a94.53,94.53,0,0,1-9.38,3.48c-3.15,1-6.07,1.73-7.94,2.25a5.6,5.6,0,0,1-1.75.13c-.37,0-.59-.07-.91-.13.49,0,1-.1,1.51-.13a9.36,9.36,0,0,0,1.19-.22,15.08,15.08,0,0,1-3,.29,14.07,14.07,0,0,1-3.37-.44c-2.15-.56-3.82-1.54-4.27-1.6a5.26,5.26,0,0,1-1.22-1c0-.07.19.06.37.16s.32.16.11,0-.8-.56-1.9-1.58l.67.46a16.83,16.83,0,0,1-1.41-1.53l-.7-.89-.79.95a8.37,8.37,0,0,1-1.28,1.19,15.09,15.09,0,0,1-1.51,1,20.27,20.27,0,0,1-3.22,1.55,30.8,30.8,0,0,1-6.84,1.75,11.46,11.46,0,0,1-7.11-1A10.3,10.3,0,0,1,163,97.07c.27.85.46,1.27.49,1.46a12.26,12.26,0,0,1-.81-2.24l-.25-1-.74.79a20.66,20.66,0,0,1-3.26,2.75,26.66,26.66,0,0,1-3.76,2.19,30.13,30.13,0,0,1-8.38,2.61,12.46,12.46,0,0,1-8.36-1.22,12.09,12.09,0,0,1-5.28-6.47l-.31-.88-.63.69a25.55,25.55,0,0,1-6.92,5.34c-1.87,1-3,1.43-3.83,1.83l-1.28.54c-.44.16-.94.32-1.56.51a9,9,0,0,1-1-.16l-1.08.23-1.09.13a15.7,15.7,0,0,1-2.22.12,11,11,0,0,1-6.35-2.17,9.51,9.51,0,0,1-2.27-2.38,9.69,9.69,0,0,1-1.42-3.12l-.43-1.81-1,1.54a14,14,0,0,1-3.21,3.42c.31-.14.63-.28.94-.43A19.7,19.7,0,0,1,94.21,102c-1.74.66-3.17,1-3,.79a5.84,5.84,0,0,1-2,.57l-.12-.14a46.5,46.5,0,0,1-7,1.07c-2.77,0-2.55-.19-2.65-.33s-.52-.2-4.5-.54c-1.48-.1-3.59-.29-5.17-.54s-2.66-.48-2.14-.25a23.38,23.38,0,0,1,3,1c-.91-.15-1.81-.33-2.7-.56-.31.16-1,.19-.83.47s1.27.93,4.69,1.66c1.62.16,3.23.23,4.84.23.51.11,1,.2,1.54.3q-2-.06-4.06-.27a18.16,18.16,0,0,0,5.4.21,8.05,8.05,0,0,0,2,.23q2.37-.29,4.7-.78c.6.11-2.08.62,1.11.32,2.17-.56-2.16-.06,1.45-.79,1.15-.11,1.58-.11,2-.17a9.49,9.49,0,0,0,2.25-.66c.4,0-.12.27-1.17.6A37.08,37.08,0,0,0,96,102.88,11.79,11.79,0,0,0,99,101a11.37,11.37,0,0,0,3.88-3.75L101,96.94c.45,1.86,1.22,2.93,1,3a14.77,14.77,0,0,0,2,2.16,15.05,15.05,0,0,0,3.39,2.16c-1-.38-1-.32-.51,0a6.24,6.24,0,0,0,1.18.57,10.64,10.64,0,0,0,1.73.57c2.52.69,5.46.59,4.9.88a32.19,32.19,0,0,0,7.31-1.68,25.57,25.57,0,0,0,7.77-4.71,6.55,6.55,0,0,1-1,.91c1.21-.89,2-1.5,2.63-2A19.23,19.23,0,0,0,133.21,97l-2.39-.47,0,.06c.27.2.84,1.4,1.8,2.7a12.61,12.61,0,0,0,3.42,3.3c.69.67,1,.85.92.91a2,2,0,0,1-.83-.31l-1.19-.72c-.3-.2-.48-.26-.31,0,0-.17,1.38.93,2.8,1.62s2.85.93,2.24.62a28.7,28.7,0,0,0,4,1c.52-.45,2.78-.19,5-1a23.94,23.94,0,0,1,2.63-.39,9.36,9.36,0,0,0,2.79-1c1-.36.63-.1,0,.25a10.91,10.91,0,0,1-1.06.5Zm90.47-1.6h0a4.31,4.31,0,0,1-.47,2.5,4.1,4.1,0,0,0,.39-1A5.86,5.86,0,0,0,242.92,102.71Zm-.46-8.48a15.31,15.31,0,0,0-.25,3.59c-.07.3-.21,0-.2-.87,0,.23.05-.15.1-.74A15,15,0,0,1,242.46,94.23ZM235,104.45a10.55,10.55,0,0,1,1.86.49c-.6-.1-1.31-.24-2.24-.48h-.16A2,2,0,0,1,235,104.45Z"/><path class="cls-1" d="M232.63,104.08l-.53-.17.74.33.48.07Z"/><path class="cls-1" d="M172.52,45.68l.12-.13c-.1.11-.2.2-.27.26Z"/><polygon class="cls-1" points="331.86 111.42 331.93 111.4 331.77 110.65 331.86 111.42"/><path class="cls-1" d="M132.35,41.3a2.86,2.86,0,0,0-.61-.23Z"/><path class="cls-1" d="M112.68,46.95c-.75.57-1.45,1.19-2.18,1.78l1.13.24-.08-.18.08.18-1.12-.24C111.46,48,112.11,47.37,112.68,46.95Z"/><path class="cls-1" d="M101.3,40.33a.9.9,0,0,0-.34,0h.34Z"/><path class="cls-1" d="M304.08,44.41l.54.37C305.84,45.75,305.05,45,304.08,44.41Z"/><path class="cls-1" d="M249.37,61.51a11.68,11.68,0,0,0,.46,2.27C249.54,62.57,249.54,61.53,249.37,61.51Z"/><path class="cls-1" d="M348.78,42h0l.51-.18Z"/><path class="cls-1" d="M249.58,62.38c-.21.9-.38,1.7-.51,2.43l1.09-.17a6.4,6.4,0,0,1-.34-.86,5.43,5.43,0,0,0,.3.89l-1,.16C249.29,64,249.46,63.16,249.58,62.38Z"/><path class="cls-1" d="M63,84.73l-.09.77s0,0,0,.1Z"/><path class="cls-1" d="M63,85.6l-.05.86A6.28,6.28,0,0,0,63,85.6Z"/><path class="cls-1" d="M62.84,88.28l.08-1.82A11.09,11.09,0,0,0,62.84,88.28Z"/><path class="cls-1" d="M67.38,63.91l0-.28C67.34,63.77,67.34,63.87,67.38,63.91Z"/><path class="cls-1" d="M69.34,57.78c-.55,1.42-1.38,3.53-2,5.57l0-.13-.05.14c0,.09,0,.19,0,.27a3.13,3.13,0,0,1,.12-.38l0,.12C67.76,62.13,69,59.09,69.34,57.78Z"/><path class="cls-1" d="M86.53,39.28a14.21,14.21,0,0,0-5,1.43,4.47,4.47,0,0,1,1.06-.31c.06,0,0,0-.14.14a8.82,8.82,0,0,0-1,.55,13,13,0,0,1,2.41-.94c.27-.08.11-.08-.05-.08s-.32,0,0-.15.4-.16.83-.29A17.55,17.55,0,0,1,86.53,39.28Z"/><path class="cls-1" d="M102.44,42.35c-2.57-1.16,0,.16-.2.15.83.31,1.3.6,1.38.6A4,4,0,0,0,102.44,42.35Z"/><path class="cls-1" d="M208.25,42.77,208,43C210.14,43,208,42.91,208.25,42.77Z"/><path class="cls-1" d="M230,44.75l-2.15.45-.92.54C228,45.37,229,45.07,230,44.75Z"/><path class="cls-1" d="M243.23,45.64a5.87,5.87,0,0,0-.84-.2,6.45,6.45,0,0,1,2.89,1.28l-.46-.35c-.16-.1-.34-.18-.51-.28A6.27,6.27,0,0,0,243.23,45.64Z"/><path class="cls-1" d="M371.2,46.46c-.12-.21-.26-.4-.39-.6C369.51,45.18,369.1,45.33,371.2,46.46Z"/><path class="cls-1" d="M443.82,36.45A31.8,31.8,0,0,0,445.92,32C445.06,33.78,444.17,35.52,443.82,36.45Z"/><path class="cls-1" d="M339.48,133.09l.43.55s.08.11.08.09,0,0,0,0a1.92,1.92,0,0,1-.13.16.82.82,0,0,0-.17.3.8.8,0,0,1,.15-.28,1.34,1.34,0,0,0,.11-.13l.06-.08h0s0,0,0-.06l-.38-.53a2.85,2.85,0,0,1-.36-.61l-.34-.67A13.54,13.54,0,0,0,339.48,133.09Z"/><path class="cls-2" d="M106.54,92.25c-.82-5.94,3.61-29.46,12.09-38.84,4.82-5.33,15.49-8.39,17.94,2.15,2.13,9.19-7.9,18.52-5.66,9.07,1.63-6.91-.39-12.86-4.69-8.76C120.79,61,117,77.28,116.38,85.07s-.81,9.49,2,3.87c4.3-8.61,14.4-13.61,16-11.15s-2.36,13.42-12.5,17.93C112.21,100,107.15,96.63,106.54,92.25Z"/><path class="cls-2" d="M136.66,92.3c-.82-5.95,3.61-29.49,12.1-38.88,4.82-5.34,14.47-8.11,18,2.15,2.69,7.92-1.74,18.26-7.29,20.72-5.16,2.29-8.63-.31-9.54-1.43-1.24-1.54,5.53,3.32,9.54-5.54,2.46-5.44,1.23-17.54-3.08-13.44-5.43,5.17-9.23,21.44-9.85,29.24s-.82,9.5,2,3.88c4.31-8.62,14.42-13.62,16.06-11.16s-2.36,13.44-12.52,18C142.34,100.1,137.26,96.68,136.66,92.3Z"/><path class="cls-2" d="M215.21,93c-.81,2.89-1.65,4.65-8.07,4.74-11.56.15-3.36.82.25-10.6,3.35-10.59,4.25-20.37,2.75-29.21-1.34-7.89-6.65-8.3-1.48-8.87a20.18,20.18,0,0,1,15.84,5s10-4.58,14.56-1.52.15,15.13-2.6,26S234.64,94.09,235.11,96c1.06,4.33-.26,3.59-3.93.67-2.87-2.28-6.35-5.79-5.32-10.22,2-8.56,7.32-24,4.27-26.86-1.52-1.42-6.72-.61-8.4,3.21S217.58,84.58,215.21,93Z"/><path class="cls-2" d="M271.38,45.22c-6.44.27-10.23,2.69-12.57,11.69-1.1,4.25-7,28.77-8,34.19s2.41,6,5.92,6.33c3.81.31,13.75,1.69,19.24-3.62,4.61-4.46,8.63-16.17,10.39-30.9C287.8,51.14,280.16,44.85,271.38,45.22ZM266.76,84.8c-8.08,2.15-9.23,10.64-8,3.07s4.41-25.5,6.78-30.55c2.93-6.23,11.86-6.11,13.5.84C279.69,61,277.19,82,266.76,84.8Z"/><path class="cls-2" d="M90.71,45.22c-6.44.27-10.23,2.69-12.57,11.69-1.1,4.25-7,28.77-8,34.19s2.41,6,5.92,6.33c3.81.31,13.75,1.69,19.24-3.62,4.61-4.46,8.63-16.17,10.39-30.9C107.13,51.14,99.5,44.85,90.71,45.22ZM86.09,84.8c-8.08,2.15-9.23,10.64-8,3.07s4.41-25.5,6.78-30.55c2.93-6.23,11.86-6.11,13.5.84C99,61,96.52,82,86.09,84.8Z"/><path class="cls-2" d="M390.37,48.54c-6.44.27-9.23,2.72-11.05,6.71-2.49,5.45-8.43,32.23-9,35.85-.92,5.42,2.41,6,5.92,6.33,3.81.31,13.75,1.69,19.24-3.62,4.61-4.46,8.2-12.85,10-27.58C406.78,54.46,399.15,48.17,390.37,48.54ZM386.18,84.8c-8.08,2.15-9.23,10.64-8,3.07s4-22.18,6.35-27.24c2.93-6.23,11.86-6.11,13.5.84C398.68,64.27,396.61,82,386.18,84.8Z"/><path class="cls-2" d="M202.48,52c.45-2.1-5.42-1.74-7.93-1.33a15.16,15.16,0,0,0-8.25-1.93c-6.38.27-9.9,6.08-12.51,13-1.53,4.07-7.54,20.64-6.55,29.59.6,5.41,3.13,6.37,6.34,6.37a21.68,21.68,0,0,0,15.67-6.12c.11-.1,3,2.7,4.36,3.79,3.65,2.9,5,3.64,3.91-.67-.46-1.89-1.74-8.16.33-19.1C200,64.14,201.16,58.21,202.48,52ZM182.16,84.66c-8,2.13-9.14,10.54-7.93,3s3.94-22,6.29-27c2.9-6.17,9.81-6.19,11.43.69C192.61,64.18,192.49,81.91,182.16,84.66Z"/><path class="cls-2" d="M308.55,66.48c3.57-9,5.18-12.63,12.75-17.07,8.59-5,2.64-.27-2.81,14.86-3.78,10.52-5.77,16.73-5.61,24.4.13,6.12,5,10.08.64,8.93-9.62-2.55-10-3.57-10-3.57s-9.12,5.38-13.54,1.79-.48-16.11,2.29-27,1.83-15.73,1.37-17.64c-1.07-4.36-1.61-5.1,3-.51,2.61,2.61,6,7.27,4.93,11.74-2,8.61-7.37,24.16-4.29,27,1.53,1.43,3.26-1.49,5-5.33S305.31,74.65,308.55,66.48Z"/><path class="cls-2" d="M332.52,99.48c2.09-.91-2.22-.94-1.53-13,.64-11.19,2.8-22.85,5.46-29.18,1.29-3.07,8.8-3.93,5.34-4.54a19,19,0,0,0-4.71-.46s-1-3,.76-18.31c.38-3.28-.13-7-6,12.8-2.83,9.62-12,41.12-12.1,48.87C319.73,99.71,330.06,100.55,332.52,99.48Z"/><path class="cls-2" d="M446.69,99.48c2.09-.91-2.22-.94-1.53-13,.64-11.19,2.8-22.85,5.46-29.18,1.29-3.07,8.8-3.93,5.34-4.54a19,19,0,0,0-4.71-.46s-1-3,.76-18.31c.38-3.28-.13-7-6,12.8-2.83,9.62-12,41.12-12.1,48.87C433.89,99.71,444.23,100.55,446.69,99.48Z"/><path class="cls-2" d="M370.24,54c-3.54-5.89-10.9-6.05-15.6-4.41-7.9,2.76-11.33,10.58-14.71,31.69-3,18.49-2.46,30.45-1.09,38.05.82,4.56,1.5,4.31,2,.6,2.15-17.47,5-22.79,5-22.79s13.35,1.86,18.43-9.79C370,74.19,374.35,60.83,370.24,54ZM355.67,82.78c-8.13,2.16-9.29,10.7-8.05,3.09s4-22.32,6.39-27.41c2.94-6.27,11.93-6.14,13.58.85C368.25,62.12,366.16,80,355.67,82.78Z"/><path class="cls-2" d="M434.28,51.94c-8.88-8.77-21.78.41-19.53,11.16,1.53,7.29,5.83,7.92,6.88,19,.73,7.73-1.6,9.34-2.89,3.23-2-9.36-6.58-11.86-9.8-10.11s-3.55,8,2.69,17.14c9,13.12,18.63.81,19.79-9.67.83-7.5-1.44-13-6.33-18-9.5-9.67-1.73-15.6,4.69-7.4,2.78,3.55,2.36,6,3,6.07S439.3,56.89,434.28,51.94Z"/><path class="cls-3" d="M162.33,16.25c-2.48,1.21-4.79,1.28-6-2.08-1.28-3.59-1.44-5.26-.41-7.09s2.46-3.25,5.11-2.86,2.87,1.17,3.51.25A3.5,3.5,0,0,1,169.7,4c1.64,1.38,1.42,3.49.19,5s-3.3,3.11-3.35,3.62,3.2-2.08,5-3.41A32.39,32.39,0,0,0,177.4,4C183,4.18,164.41,15.23,162.33,16.25Z"/><path class="cls-1" d="M93.16,3.83l-.31,0Z"/><path class="cls-1" d="M210.82,0c-5.74.61-27.92,2.59-34.42,3.51,0,0,3,.5,1.56,1.94-5.31,5.31-13.27,9.74-15.57,10.86-2.47,1.21-4.78,1.27-6-2.07C155.14,10.7,155,9,156,7.21s2.45-3.24,5.09-2.85,2.86,1.17,3.49.25a3.49,3.49,0,0,1,5.14-.5c1.64,1.38,1.42,3.48.19,5s-3.29,3.09-3.34,3.6,3.19-2.07,5-3.4c8.08-5.81,8.09-9.24,7.86-9.3-63,3.37-98,16-100.58,15.45-3.95-.81-19.26-6.82-23.5-6.9-3-.06,10.42,6.06,20.1,12.12C71.55,28.19,61.32,42.06,65.36,39.2c7.14-5.07,17.26-17,19.6-18.07,2-.86,6-.58,8.91-.41-2,1.9-.11,3.31,3.34,3.65l3.45-2.45c3.49.31,8.93.66,8.93.66s-1.45,1.7,3.33,2l2.69-1.81c1.4.05,28.79,1.11,45-3.16l-.05-.77a4.75,4.75,0,0,0,1.87-.53c6.66-3.52,17.08-11.71,20-12.61,4.57-1.41,27-3.65,28.44-3.9A.89.89,0,0,0,210.82,0Z"/><path class="cls-3" d="M152.42,18.31c-2.94,1.14-21.69,1.88-44.78,1.28-11.44-.3-12.79-2-22-1-1.09.12-1.48,0-.59-.46a15.37,15.37,0,0,1,3.79-1.34c3.4-1,12.36-1.31,22.86-3.26,15.63-2.91,32.33-6,32.33-6s-10.41.36-29.23,3.07C91.69,13.95,108.53,11,141.68,6c6.62-1,11.14-1.53,10.39-1s-3.15,1.92-2.24,1.83A36.72,36.72,0,0,0,156.3,3.9a.87.87,0,0,1,1.16.08,10.27,10.27,0,0,0-2.85,2.8c-1,1.74-1,3.88.06,7.24C155.22,15.79,155.53,17.11,152.42,18.31Z"/><path class="cls-1" d="M45,24.57l-.24.09A.42.42,0,0,0,45,24.57Z"/><polygon class="cls-1" points="61.5 23.25 61.4 23.28 61.46 23.28 61.5 23.25"/><path class="cls-1" d="M61.46,23.28l-.16.11C61.55,23.31,61.54,23.29,61.46,23.28Z"/><path class="cls-1" d="M43.31,25.32a3,3,0,0,0-.51.16Z"/><path class="cls-1" d="M45.29,25.37l.13,0Z"/><path class="cls-1" d="M27.25,26.85l.07,0Z"/><path class="cls-1" d="M25.91,27.17l-.31,0,0,0A1.17,1.17,0,0,0,25.91,27.17Z"/><path class="cls-1" d="M26.47,27.19l-.28,0Z"/><path class="cls-1" d="M17.61,29.4l0,.08S17.62,29.42,17.61,29.4Z"/><path class="cls-1" d="M27.54,26.71l-.22.1C27.44,26.77,27.64,26.73,27.54,26.71Z"/><path class="cls-1" d="M45.07,24.53l0,0S45.1,24.53,45.07,24.53Z"/><path class="cls-1" d="M42,25.48h0C42.16,25.46,42.12,25.46,42,25.48Z"/><path class="cls-1" d="M54.3,25.12c-.18.06-.36.12-.53.2C54.19,25.2,54.31,25.16,54.3,25.12Z"/><path class="cls-1" d="M32.25,26.31c.23.2-.71.11-.63.32.36-.1.63-.18.82-.08-.29.17-.76.1-.88.31l.54-.15c.37,0-.1.26.23.2.43-.33,1.61-.12,2.11-.24l-.18.05h.81s0,0,0,0l0-.05a4.13,4.13,0,0,0,1.59,0c.23-.18,2.07-.34,2.36-.51a3.25,3.25,0,0,1-.86.12l0-.19c.62-.08.06.16.64,0-.14-.23-.86.12-1.29.15A2.76,2.76,0,0,1,38.2,26a6.71,6.71,0,0,0-2.28.47c-.26,0-.15-.14,0-.19-.61.23-.48-.07-1,.13.15-.25,1.29-.3,1.81-.5a12.22,12.22,0,0,0,2.75-.41c.06.16-.55.39-.18.44.9,0,.87-.21,1.36-.37.64,0,.1.27,1.1.14l-.58.19c.61.16.54-.17,1-.18-.15,0-.16-.1-.66,0-.06-.08.31-.17.5-.2H41.9a1.1,1.1,0,0,1,.88-.3c-.38.19.51,0,.68.08l-.16.05c.45-.11.93-.15,1.22-.22l0,0c.34-.1.45-.29,1-.32,0,.08-.62.35-.07.24a2.73,2.73,0,0,1-1.19.24c.51,0,.79.11.17.2.19.11.57-.14.91-.12-.06,0,0-.09,0-.13,0,.18,1.21-.15,1.21-.28l-.59.18c-.07-.14.68-.33.43-.38.32.19,1.59-.33,1.93-.18L48,24.5a34.82,34.82,0,0,0,3.51-.72c-.42.13-.43.38-1.21.4,1.19-.11.38.2.76.27.94,0,.45-.29.72-.41l-.64.13c.79-.4,2.4-.25,3.66-.6.1.06-.26.08-.43.13.59.07.55-.1.89-.21.6-.05,1.32-.08,1,.15.66,0-.08-.1.26-.2l.13,0,.66-.29a4.48,4.48,0,0,1,1.55.13c1.32-.21.41-.47,1.36-.66.55,0-.09.15-.13.23l.85-.13c-.28.24-1,.23-.9.46a11.5,11.5,0,0,1,1.9-.47H61.9A3.64,3.64,0,0,1,63,22.48l.05.37c-.3,0-.6.09-.83.14a3.36,3.36,0,0,1,.81-.26l0-.13-.42.08.42,0v0a7.34,7.34,0,0,0-2.26.65c-.36,0-1.14.12-.64-.08-1.26.23-.46.41-1.54.6v-.17c-1.24.05-2.25.79-3.41.92v.21c-.26,0-.76.1-.87.06l.54-.23c-.52,0-.51.31-1.12.39,0,.05.54,0,.56.09,2.31-.84,4.72-1.19,7.1-1.84-.1,0-.21,0-.16-.06.27,0,.76-.14.7,0l-.08,0a4.76,4.76,0,0,1,1.27-.06l-.14-1a2,2,0,0,0-.36,0c-.24.16-1.34.11-1,.3l-.44-.09c-.13.1,0,.2-.3.28-.45,0-.47,0-.13-.15-1.7.13-3.7.42-5.43.71l.45-.17c-.42,0-1.49.39-1.17.07-.83.22-2.32.23-2.34.52A10.44,10.44,0,0,0,49,24c.23.21-1,.2-1.26.35-.19-.16,1-.32,1-.45-1.17.45-3.38.24-3.83.79-.15,0-.15,0-.1,0-.23,0-.55,0-.79,0s.38.07-.17.18-.21-.12-.4-.16a9.64,9.64,0,0,0-2.28.66c-.26,0-.54-.09-.26-.16-1.32.34-1.29.15-2.64.43.47-.07.21-.24.91-.25-.57-.2-2.07.34-3.17.35l-.41.23c-.65.12-.72,0-.26-.16a20,20,0,0,0-2.57.36c-.05,0,0-.05.13-.07l-1.24.17c-.12.06-.55.21-.44.31C31.32,26.43,31.57,26.34,32.25,26.31Z"/><path class="cls-1" d="M31.18,26.55l0,0h0Z"/><path class="cls-1" d="M42.5,25.74a1.39,1.39,0,0,0-.31,0A1.1,1.1,0,0,0,42.5,25.74Z"/><path class="cls-1" d="M19.62,28.54c.2.24.74-.15,1.29-.16-.51.12-.35.25-.28.32.58-.43.79,0,1.95-.29,0,.11-.52.21-.57.34.63-.18,1.61-.37,1.73-.58,1.09-.16,1.88-.21,2.53-.33-.78.19-.12.21-.67.46.77-.34,2.52-.86,3.66-1.3.17.19.23.2.11.41,1.34,0,.35-.25,1.61-.36l-.58,0a1.08,1.08,0,0,0,.75-.51l-1.46.24c0-.15.91-.25,1.17-.33.41-.23-.81,0-.67-.17a5.62,5.62,0,0,1-1.14.29L29,26.54a11.63,11.63,0,0,0-1.67.35c-.06,0-.07,0-.06,0a2.48,2.48,0,0,1-.78.34l.29-.05c-.5.26-1.79.56-.9.64l-1.5.16a1.56,1.56,0,0,1,1.25-.72l.09-.1c-.66,0-1.79.42-1.35.53-.58.58-2.28.35-3.34.71-.1-.12.5-.26.75-.39s.56-.1.6,0c1.4-.28-.35-.38,1.24-.56.79,0-.92.35.23.2l.76-.48c-.71.11-1.34.26-1.91.39a36.28,36.28,0,0,1-5.41.83L3.33,30.61c-1.45.28-2,.35-2.5.8.31,0,1.2-.15.92,0A3.07,3.07,0,0,1,3.19,31c.1.12-.69.17-.49.17h.15a.69.69,0,0,1-.43.19,7,7,0,0,0,3-.58c.72,0-.44.28-.78.44,2.46-.28,4.11-.55,6.58-.92,0-.24.23-.19.55-.4L12,30c-.11,0,.21-.24-.29-.21,1.44,0,1.64-.56,2.6-.81l0,.13c.8-.14,1-.18,1.72-.35,1.32,0-1.13.21-.73.45l.36-.1a2.68,2.68,0,0,1-.8.53c1.21-.38,1.78-.19,3.1-.54a7,7,0,0,1-1.66.51c.46-.05,1.25-.27,1.31-.16l.07-.18c.8-.14-.08.17.2.24C19.76,29.16,18,28.88,19.62,28.54Z"/><path class="cls-1" d="M38.81,25.9a3.77,3.77,0,0,0-.6.09Z"/><path class="cls-1" d="M35.07,26.75l-.06.07C35.08,26.79,35.1,26.77,35.07,26.75Z"/><path class="cls-1" d="M34.73,27c-.1-.06.14-.1.28-.22C34.78,26.9,34.15,27,34.73,27Z"/><path class="cls-1" d="M32.48,34.43c-.07.1-.47.41-.35.38l.6-.44Z"/><path class="cls-1" d="M33.84,33.81l.65-.32.3-.44C34.12,33.45,34.5,33.4,33.84,33.81Z"/><path class="cls-1" d="M35.65,32.88l-.11.13C35.65,32.92,35.67,32.89,35.65,32.88Z"/><path class="cls-1" d="M35.63,32.78l.16-.29-.75.58.33-.15s.24,0,.29,0l.25-.28A1.07,1.07,0,0,1,35.63,32.78Z"/><path class="cls-1" d="M36.32,32.37h-.08S36.27,32.39,36.32,32.37Z"/><path class="cls-1" d="M38.06,31.76c-.19,0,.1-.23.11-.31-.66.29-.57.53-1.16.77.79-.59-.36.09-.68.16A2.32,2.32,0,0,0,37.59,32l0-.13C37.94,31.7,37.8,31.86,38.06,31.76Z"/><path class="cls-1" d="M41.32,29.78l-.45.4c-.12,0-.95.39-1,.23a4.45,4.45,0,0,0-.51.42,1,1,0,0,0-.68.32c1.28-.54.92-.33,2-.82,0,0-.14.1-.28.17l.74-.27C41.16,30,42.05,29.55,41.32,29.78Z"/><path class="cls-1" d="M42.4,29.38c-.56.27-.8.57-.48.52l1.14-.69C42.72,29.38,42.29,29.6,42.4,29.38Z"/><path class="cls-1" d="M43.24,29a1.58,1.58,0,0,0,1-.37C43.62,28.94,43.82,28.58,43.24,29Z"/><path class="cls-1" d="M47.42,27.3l-1.17.38c-.29-.1.52-.29.83-.52a3.64,3.64,0,0,0-1.32.73,6.74,6.74,0,0,0-1,.59C46.18,27.67,46.45,28.12,47.42,27.3Z"/><polygon class="cls-1" points="45.08 28.08 44.98 28.21 45.49 27.91 45.08 28.08"/><path class="cls-1" d="M50.2,26.44c.78,0,1.27-.62,2.11-.79-.08,0,0,0-.17.12l.66-.25,0,0c-.09-.12.59-.41.86-.62-.74.08-.29.29-1,.33.13-.11.2-.24.32-.34a2.28,2.28,0,0,0-.62.47c-.44.17-.34,0-.39,0-.47.25-.4.46-1.18.69-.53.06.22-.29-.6.06.49.06-.85.28-1.11.55-.63.2-1.08.22-1,.09.08.16-.4.52-.84.76.32-.19.64-.39,1-.56l.43.06a6.93,6.93,0,0,1,1.52-.65Z"/><path class="cls-1" d="M53.07,24.93l.22-.11A.61.61,0,0,0,53.07,24.93Z"/><polygon class="cls-1" points="47.99 26.8 48.22 26.66 48.03 26.67 47.99 26.8"/><path class="cls-1" d="M53.56,24.61c-.14,0-.17.12,0,.08l.19-.17Z"/><polygon class="cls-1" points="54.24 24.54 54.63 24.55 54.82 24.39 54.24 24.54"/><path class="cls-1" d="M57,23.56c.49,0,.43-.13.49-.24C56.71,23.38,57.46,23.44,57,23.56Z"/><path class="cls-1" d="M47.55,25a9.15,9.15,0,0,0,1.55-.25A5.65,5.65,0,0,0,47.55,25Z"/><path class="cls-1" d="M43.61,26c.13-.06.31-.11,0-.09l.48-.33C43.32,25.63,43.57,25.92,43.61,26Z"/><path class="cls-1" d="M39.06,26.69l.72-.2-.38,0a2.79,2.79,0,0,1,.57-.32C39.43,26.35,38.92,26.52,39.06,26.69Z"/><path class="cls-1" d="M40.63,26.08l-.27.05A.24.24,0,0,0,40.63,26.08Z"/><path class="cls-1" d="M40.06,26.18l-.09,0,.39-.09A.42.42,0,0,0,40.06,26.18Z"/><path class="cls-1" d="M38.49,26.64l-1.27.21.49,0C37.79,26.66,38.31,26.84,38.49,26.64Z"/><path class="cls-1" d="M31.78,27.44l-.15-.13c-.82.08-1.79.56-2.31.38.37,0-.65.27.32.18A8.5,8.5,0,0,1,31.78,27.44Z"/><path class="cls-1" d="M28.75,27.64c.13-.06-.08-.07-.19-.1-.29,0-.6.14-.43.18C28.34,27.49,28.47,27.81,28.75,27.64Z"/><path class="cls-1" d="M25,28.2c.24,0,.56-.1.21-.09-.71.11-.5.26-.84.42C25,28.53,25.46,28.21,25,28.2Z"/><path class="cls-1" d="M19.26,27.88c.1.12.66,0,.79,0A2.9,2.9,0,0,1,19.26,27.88Z"/><polygon class="cls-1" points="19.29 28.99 19.5 29 19.7 28.76 19.29 28.99"/><polygon class="cls-1" points="15.06 29.73 14.54 29.95 15.34 29.8 15.06 29.73"/><path class="cls-1" d="M14.24,29.82l-.71.12h.26C14.14,29.94,14,29.86,14.24,29.82Z"/><path class="cls-1" d="M12.12,30.17a.34.34,0,0,1,.2,0L13,30Z"/><path class="cls-1" d="M.7,31.09c.14-.16-.49,0-.69,0A.75.75,0,0,0,.7,31.09Z"/><path class="cls-1" d="M151,10.18a34.3,34.3,0,0,0-6.79,2.68c-3,1.53-4.53,3-3.33,2.74a14.25,14.25,0,0,1,5.61.21c1.91.51,3,1.46,4.1.94s2.18-.92,2.28-1.37S151.53,10.09,151,10.18Z"/><path class="cls-1" d="M169.84,6.35a2.53,2.53,0,1,0-2,2.94A2.53,2.53,0,0,0,169.84,6.35Zm-2.49,2.36a1.52,1.52,0,0,1-1.5-1.3h0s0,0,0-.07,0-.1,0-.15v0a1.49,1.49,0,0,1,2.11-1.39,1.53,1.53,0,0,1-.58,2.94Z"/><path class="cls-1" d="M107.4,9C96.06,7.6,93.94,4,93.19,5.81c-2.56,6.19-11,6.51-11,6.51s3,2.81,3.51,2.91Z"/></g></g></svg>