<svg xmlns="http://www.w3.org/2000/svg" viewBox="0 0 403.57 117.21"><defs><style>.cls-1{fill:#002d73;}.cls-2{fill:#00c4b3;}</style></defs><title>mobile_logo</title><g id="Layer_2" data-name="Layer 2"><g id="Layer_1-2" data-name="Layer 1"><path class="cls-1" d="M4.72,84c9,2.83,29,2.75,34.58-6.25,0,0,1.5,7.83,12.17,8s18-8.67,18-8.67A12.33,12.33,0,0,0,83.3,85.26c10.83-1.5,16.17-7.83,16.17-7.83a11.57,11.57,0,0,0,12.83,8.67c10.67-1,13.83-5.67,13.83-5.67s5.33,6.67,13.83,5.67,18.67-5.33,18.67-5.33S182,94.15,179.3,82.43c-2.33-10.17,3.83-14.67,3.83-14.67s-4.83,15.17,7.5,16.67,22,1.83,30-6.33c0,0,2.67,8.33,10,7s11-3.67,11-3.67,6.33,7.33,28.33,7c0,0,2.5,22.67,6.33,27.17s12.17-32.33,12.17-32.33a16.11,16.11,0,0,0,13.67-4.5s4.5,9,17.83,7.83a48.55,48.55,0,0,0,22.83-8.33s4.17,9,11.83,9a17.32,17.32,0,0,0,12.17-5s10,8.17,19.83,4.33,4.67-10.17,3.67-21.67a35.27,35.27,0,0,1,8.5-26.17c6-7,3.5-7.83-2.5-9.5,0,0-2.33-5.17-2.83-22.25-.25-8.73-6.84-8.42-17,20.58,0,0-19.17-13.17-29.5,3.83,0,0-15.17-17.33-34.67-2.33,0,0-12.17-12.67-31.17-2.34,0,0-.87-5.55-2.5-23.83-.83-9.33-16,20.67-16,20.67s-7.83-.33-18.17,6.5c0,0-4.67-8.67-19.83-7.33,0,0-30.33-20-37.67,23.16-3.33-6.5,7.67-29-24.33-18,0,0-9.5-7.67-29.83-3.67,0,0-19.17-7.5-25,4.83,0,0-13.5-15.33-27.83.83,0,0-12.67-17.5-31.67.33,0,0-3.67-8.67-18.67-10.33-11.22-1.25-17.33,2.21-24,24.71C4.72,46.51-4.28,81.18,4.72,84Z"/><path class="cls-1" d="M4.52,84.64c.3.05.39,0,.19-.12l-.53-.29L3.74,84c-.15-.1-.32-.24-.5-.37a5.21,5.21,0,0,1-1.16-.74A5.15,5.15,0,0,0,4.52,84.64Z"/><path class="cls-1" d="M.71,74.15c-.2-2-.35-4.27-.71-3a33.53,33.53,0,0,0,.6,4.56c.15,1.68.26,2.94.08,2.69.12.29.19,1,.41,1.63a5.33,5.33,0,0,0,.8,1.77A32.44,32.44,0,0,1,.49,74C.56,73.41.64,74,.71,74.15Z"/><path class="cls-1" d="M110.69,25.86c-.24.23-.51.44-.73.7C110.14,26.35,110.42,26.14,110.69,25.86Z"/><path class="cls-1" d="M188.75,40.61a4.78,4.78,0,0,0-.2,1.1A4.45,4.45,0,0,0,188.75,40.61Z"/><path class="cls-1" d="M196.06,25.53l-.64.73A5.94,5.94,0,0,0,196.06,25.53Z"/><path class="cls-1" d="M110.69,25.86c.31-.3.68-.53,1-.8s.72-.47,1.11-.65C112.92,24.22,111.61,25,110.69,25.86Z"/><path class="cls-1" d="M2.85,51.64c-.11.56-.18,1-.24,1.46l.27-1.36A.4.4,0,0,1,2.85,51.64Z"/><path class="cls-1" d="M73.44,25.26c-.23-.13-.46-.27-.7-.38s-.44-.12-.65-.17C72.54,24.88,73,25.05,73.44,25.26Z"/><path class="cls-1" d="M43.93,26.19a2.48,2.48,0,0,0,1.23.57,13,13,0,0,1-1.37-.94S43.79,26,43.93,26.19Z"/><path class="cls-1" d="M5.94,44.5l-.06.22,0,0c-.07.2-.14.43-.2.67.06-.23.13-.46.2-.67l0,0Z"/><path class="cls-1" d="M94,23.31a.81.81,0,0,0,.29.11S94.17,23.35,94,23.31Z"/><path class="cls-1" d="M39.22,80.95s0,0,0,0C39.13,80.74,39.08,80.69,39.22,80.95Z"/><path class="cls-1" d="M4.74,83.94l.53.14c.07,0,.14-.07.16-.12Z"/><path class="cls-1" d="M223.4,23.61l-.11-.07C222.58,23.18,223,23.39,223.4,23.61Z"/><path class="cls-1" d="M390.24,52.47c.6-1.6.26-.25.07.9s-.3,2.08.4-.35C390.46,53.45,391.58,48.45,390.24,52.47Z"/><path class="cls-1" d="M3.08,50.78l.33-1.38C3.24,50,3.15,50.45,3.08,50.78Z"/><path class="cls-1" d="M390.71,53h0l.17-.49Z"/><path class="cls-1" d="M277.53,4a4.79,4.79,0,0,0,.06-.75A2.46,2.46,0,0,0,277.53,4Z"/><path class="cls-1" d="M241.15,27.6a10.71,10.71,0,0,1,.92.87A8.1,8.1,0,0,0,241.15,27.6Z"/><path class="cls-1" d="M286.2,25.37a19.15,19.15,0,0,0,1.82-.63l-.29.07A9.8,9.8,0,0,1,286.2,25.37Z"/><path class="cls-1" d="M313.7,29.08l-.46.26-.47.35-.51.38-.5-.46-.22-.2.2.21.46.46.57-.39Z"/><path class="cls-1" d="M115.45,86.85a6.77,6.77,0,0,1-1.42,0C114.52,86.94,110.11,87.62,115.45,86.85Z"/><path class="cls-1" d="M3,51.66a2.62,2.62,0,0,1,.08-.88l-.2,1C2.9,51.84,2.93,51.86,3,51.66Z"/><path class="cls-1" d="M286.6,22.87a15.59,15.59,0,0,1,2.35-.65,22.46,22.46,0,0,1,2.39-.49,17.55,17.55,0,0,0-2.26.45A16.19,16.19,0,0,0,286.6,22.87Z"/><path class="cls-1" d="M270.86,102.08l-.23-1.06A9.09,9.09,0,0,0,270.86,102.08Z"/><path class="cls-1" d="M305.68,23.26c.79.39,1.58.9,2.42,1.35a5.57,5.57,0,0,0,.53.22,16.33,16.33,0,0,0-1.45-.83A14.41,14.41,0,0,0,305.68,23.26Z"/><path class="cls-1" d="M114,86.83h0Z"/><path class="cls-1" d="M89.77,85.33a14.14,14.14,0,0,0,2.15-.91c.39-.21.52-.32.53-.39s-.36-.12,0-.43A25.11,25.11,0,0,1,95.67,82c.21,0,.06.27.91-.19a19.23,19.23,0,0,0,3.81-3.6l-2.09-.51a17.58,17.58,0,0,0,1.6,3.43c.05.2.31.66-.08.18a16.7,16.7,0,0,0,2.26,2.63,12.09,12.09,0,0,0,3.54,2.29,10.91,10.91,0,0,0,2.09.64,10.6,10.6,0,0,0,2.1.26,11.24,11.24,0,0,0,2-.06,11.06,11.06,0,0,0,1.69-.26,2.77,2.77,0,0,1,.55,0c-.7-.1-.82-.28-.7-.43a25.63,25.63,0,0,0,2.67-.5,6.65,6.65,0,0,1,1.76-.31,10.27,10.27,0,0,0-1.84.59c.69-.18,1.37-.37,2-.59,1-.11.28.15-.66.4a11.29,11.29,0,0,0-2.11.59,26.35,26.35,0,0,0,6.17-2,17.63,17.63,0,0,0,4.8-3.28c.18-.08,0,.27-.5.72a11.32,11.32,0,0,1-1.73,1.37c-.61.4-1.14.69-1.27.79s.16,0,1.15-.49a21.25,21.25,0,0,1-4.65,1.95c1.9-.38,1.18-.14.41.13s-1.58.49.21.23a18.32,18.32,0,0,0,4.5-2.11,13,13,0,0,0,1.54-1.17c.24-.21.47-.43.69-.66a7.24,7.24,0,0,0,.71-.85l-2.12.08A18.23,18.23,0,0,0,126.89,83a21.41,21.41,0,0,0,2.63,2c1.41.61-.29-.48,1.11.1a22.47,22.47,0,0,0,5,1.72c1.23.27,2.09.37,2.89.49a14.88,14.88,0,0,0,6.14-.73,38,38,0,0,1,6.83-2.3L150,85.1a23.74,23.74,0,0,0,4.54-1.73A39,39,0,0,1,159,81.58l-.79,0,.39.24-.42-.19.85,0c-1.3.67-4,1.66-3.22,1.4a12.69,12.69,0,0,0,3.28-1.28l-1-.06a17.23,17.23,0,0,1,2.52,1.11l.44.61a59.63,59.63,0,0,0,9.67,3.9,17.65,17.65,0,0,0,5.6.83,4.59,4.59,0,0,0,3.06-1.22,4.07,4.07,0,0,0,.54-.75,7.12,7.12,0,0,0,.31-.83,5.62,5.62,0,0,0,.1-1.61,5.62,5.62,0,0,1,.15.9c0,.2.17,0,.16-1-.07-.81-.27-1.59-.38-2.2l-.2-1-.11-1a14.1,14.1,0,0,1,.14-4,12,12,0,0,1,1.31-3.78A11.1,11.1,0,0,1,182.52,70a8.42,8.42,0,0,1,1.31-1.32L182,67.4a25.32,25.32,0,0,0-1.07,5.89,15.89,15.89,0,0,0,.66,5.85,9.93,9.93,0,0,0,2.18,3.17c.6.66,1.13,1.25.35.63a6.65,6.65,0,0,0,.88.77,2.68,2.68,0,0,0,.49.33c.21.11.19.06.12,0s-.46-.49.36-.06,1.62.8,1.85.94.06.16-.61,0a13,13,0,0,0,2.69.62c1,.14,1.89.17,2.91.27,2,.16,4.2.32,6.41.39a57.26,57.26,0,0,0,6.54-.17,36.17,36.17,0,0,0,5.65-1c-.4.17-.82.28-1.23.43a14.51,14.51,0,0,0,5-2.16c.59-.4,1.18-.76,1.83-1.26.33-.24.7-.47,1.09-.76s.81-.61,1.3-1l-.68.61a27.81,27.81,0,0,0,2.51-2.19l-1.44-.34a13.38,13.38,0,0,0,3.92,5.81,8.94,8.94,0,0,0,3.22,1.66l.89.19a7.51,7.51,0,0,0,.9.07,8.67,8.67,0,0,0,1.77-.1,46.14,46.14,0,0,0,6.18-1.46,31.1,31.1,0,0,0,5.49-2.23l-1.32-.19a15,15,0,0,0,2.33,2c.81.29,3.22,1.68,5.72,2.54a29.17,29.17,0,0,0,3.46,1,4.1,4.1,0,0,0,1.89.18l2,.49,1.44.3c.83.18,1.46.33,2.17.43s1.5.24,2.67.38l2.07.17c.81.07,1.74.13,2.84.15a20.92,20.92,0,0,0,2.57-.12l-1.21-1.07c.23,1.06.51,2.11.77,3.75l-.3.11.88,3.83,0,2.12.54,2.66a6,6,0,0,1-.14-2.14c.41,2.07.85,4.61,1.19,6.66a36.88,36.88,0,0,1,.58,3.66,33.25,33.25,0,0,0,1.78,4.85c.21.4.38.8.64,1.2l.42.6.21.3.11.15.19.19a2,2,0,0,0,1.23.57,2,2,0,0,0,1.25-.33,4.39,4.39,0,0,0,1.16-1.17,2.83,2.83,0,0,1-1,1.22,2.32,2.32,0,0,1-.89.38,2,2,0,0,1-1.27-.18,2.57,2.57,0,0,1-.78-.63l-.37-.49.34.45.08.1.14.14a2.16,2.16,0,0,0,2,.59,3,3,0,0,0,1.35-.79,3.23,3.23,0,0,1,.59-.53,1.35,1.35,0,0,0,.45-.45,10.65,10.65,0,0,0,1.11-2.14c-.36.59,0-.41,0-.54,1.27-2.2,3.08-7.5,4.14-11.46l0,.82c1.75-5.71,3.27-12,4.75-18.5l-1.55,1a15.44,15.44,0,0,0,2.65.18,18.85,18.85,0,0,0,2.61-.21c-1.59.17-2.21,0-2.1-.08a10.2,10.2,0,0,1,2.17-.44c.35,0,.71.11,1.07.13.79-.29.13-.16-.32-.1s-.67.09.94-.43,2.09-.6,2-.46a1.47,1.47,0,0,1-.48.35,11.88,11.88,0,0,1-1.13.48,17.7,17.7,0,0,0,3.69-1.66c.26,0-.55.47-.73.69a21.68,21.68,0,0,0,4.58-3.23l-2.4-.37a10,10,0,0,0,1.26,1.9,8.17,8.17,0,0,0,1.26,1.24l.1.23a17.77,17.77,0,0,0,4.89,3.37,19.81,19.81,0,0,0,4.59,1.49,27.51,27.51,0,0,0,9.24,0c.1-.27,2.79-.63,4.73-1.35A47.77,47.77,0,0,0,342.34,80a12.46,12.46,0,0,0,1.15-.87l-1.71-.43c.54,1,.61.92.66.91s.06-.1.54.56a10.18,10.18,0,0,0,1.54,2.57l.75,1c.08.11-.12,0-.68-.61a17,17,0,0,0,3.67,3.28,11.45,11.45,0,0,0,3.84,1.65c.35.07.69.15,1.05.2l1.12.07a7.92,7.92,0,0,0,1.14,0,10.59,10.59,0,0,0,1.2-.11,18.23,18.23,0,0,0,5.72-1.71c-1,.34-2.09.66-1.56.38,1.61-.58,3.55-1.59,3.4-1.37l-.38.25a19,19,0,0,0,3.68-2.91l-1.22.09a33.35,33.35,0,0,0,6.41,3.83,23.07,23.07,0,0,0,7.34,2,16.34,16.34,0,0,0,7.24-1,10.41,10.41,0,0,0,5.23-3.89l-.32.43a7.62,7.62,0,0,0,1.47-4.6,20.37,20.37,0,0,0-.57-4.38c-.7-3.86.64,2.28.24-.61-.55-2.24-1-4.18-1.36-6a37.72,37.72,0,0,1-.57-5.15,40,40,0,0,1,.87-9.89c.53-1.31,1.15-3.14,2.07-5.16a40.55,40.55,0,0,1,3.61-6.38c.36-.54.76-1,1.15-1.57L400.31,39a22.58,22.58,0,0,0,2.42-3.45l.26-.48.22-.54a5.34,5.34,0,0,0,.33-1.2,3.54,3.54,0,0,0-.79-2.73,5.13,5.13,0,0,0-.91-.79,6,6,0,0,0-.88-.52,16.19,16.19,0,0,0-1.56-.7l.4.32a19.65,19.65,0,0,1-3.11-1l.91.78c0-.09-.09-.34-.16-.57a2.1,2.1,0,0,0,.09.6l-.86-.74c.49.19.91.34.15.18l-.18,0,.77.66a13.1,13.1,0,0,1-.45-1.34c-.14-.49-.27-1-.39-1.5-.24-1-.43-2-.61-3.09-.35-2.09-.59-4.23-.77-6.38s-.3-4.32-.39-6.5l-.09-3.3A10.38,10.38,0,0,0,394,3a3.79,3.79,0,0,0-1.55-1.87A3,3,0,0,0,391,.72a3.84,3.84,0,0,0-1.28.24,8.67,8.67,0,0,0-3.11,2.4,33.66,33.66,0,0,0-3.89,5.72A102.89,102.89,0,0,0,377.1,21.2a27,27,0,0,0-1.67,6l1.66-.54c-1-.52-2.28-1.31-5-2.7.77.21,1.53.44,2.29.71a36.21,36.21,0,0,0-7.46-2.61,22.4,22.4,0,0,0-8.07-.42,16,16,0,0,0-4,1.07,15.68,15.68,0,0,0-3.6,2,20.64,20.64,0,0,0-5.34,6l2-.18a25.31,25.31,0,0,0-3.4-3,28,28,0,0,0-3.73-2.37,9,9,0,0,1,1.88.94,20.83,20.83,0,0,0-5.5-2.91,13,13,0,0,0-4.08-.92c-2-.39-.44-.28-1.7-.55a16,16,0,0,0-4.82,0c-1.61.18-3,.55-3.76.61a6.06,6.06,0,0,1,1.26-.38,33.52,33.52,0,0,0-4.55,1.4c-1.57.63-2.64,1.24-1.8,1a30.36,30.36,0,0,0-6.13,3.79l1.58.12a28.8,28.8,0,0,0-5.05-3.67c-1.22-.45-3.12-1.41-5-1.93-.46-.13-.89-.29-1.32-.38l-1.17-.21a3.35,3.35,0,0,0-1.44-.06c.1-.1-.38-.23-1.22-.36a11,11,0,0,0-1.5-.16h-1.85a12.41,12.41,0,0,0-2,.18c-.67.1-1.34.17-2,.31-1.24.33-2.34.64-3.08.88.94-.48-2.59.78-1.5.19l-2,.74-1.66.84a12.84,12.84,0,0,0-1.86,1.08l1.76.87c0-.12-.09-.13-.11,0-.3-6.24-1.86-12.51-1.52-16.1L279.83,3a8.49,8.49,0,0,0-.17-1.07A3,3,0,0,0,279,.61,1.86,1.86,0,0,0,278,0a2.06,2.06,0,0,0-1,0,3.59,3.59,0,0,0-1.16.61,14.88,14.88,0,0,0-2.63,2.88,112.48,112.48,0,0,0-7.31,12.08c-.12-.25,1.11-2.48,2.35-4.6s2.52-4.13,2.21-4.09c-1.92,3.11-3.3,5.76-4.62,8.32l-4,7.92.82-.48a23.84,23.84,0,0,0-4.21.43c-1.13.21-.82.1-.14-.11s1.78-.41,2.17-.49a36.56,36.56,0,0,0-8.9,2.5,44.58,44.58,0,0,0-7.72,4.14l1.54.39a14.42,14.42,0,0,0-5.54-5,2.48,2.48,0,0,1,.52.23,8.47,8.47,0,0,1,1,.6,18.35,18.35,0,0,0-2.09-1.29c-.64-.31-1.09-.49-1.05-.36.47.22,1,.41,1.42.65,1,.8-.4,0-2.2-.57a16.09,16.09,0,0,0-4.15-.9c.67,0,.54-.13,0-.28-.26-.08-.62-.17-1-.26s-.85-.13-1.28-.2L229.83,22a6.61,6.61,0,0,1-.82-.11c-.34-.08-.21-.19.86-.35-1,0-2.34.07-2.1.21-1.52,0-2,0-.47-.28-1.29.09-2.17.17-2.75.23l.65.16a20.77,20.77,0,0,0-2.16-1c-.65-.27-1.46-.67-3.27-1.4a9.49,9.49,0,0,1,1.54.37c-1.22-.43-2.45-.81-3.9-1.2a41.49,41.49,0,0,0-5.24-1.07c.26,0-.22-.17,1.05,0a19.79,19.79,0,0,0-10,1,20.14,20.14,0,0,0-4.4,2.36,23.78,23.78,0,0,0-4.08,3.78c.6-1.05.14-.55-.56.23s-1.45,2-1.74,2a33.19,33.19,0,0,0-2,3.87c.31-.49.58-1,.93-1.48-1.78,3.36-2.55,6.62-3.54,9.66.16-.92.44-1.8.65-2.71-.34,1.12-.69,2.24-.94,3.38s-.57,2.27-.75,3.42c.27-1.29.68-2.55,1-3.83-.37,1.86-.23,1.78-.16,1.85s0,.25-.49,2.67a18.3,18.3,0,0,0-.46,2.1l.47-.07a7.47,7.47,0,0,1-.5-3.3h0a43.17,43.17,0,0,1-.13-6.43c.11-.72.42.57.49.11a38.74,38.74,0,0,0-.79-5.39,8.39,8.39,0,0,0-1.49-3.07,5.44,5.44,0,0,0-2-1.64c.69.4.85.3.66.09a8.3,8.3,0,0,0-1.51-.64c-.82-.38-1.3-.58-1.54-.66s-.22-.15-.06-.19a7.17,7.17,0,0,0-1.48-.28,4.29,4.29,0,0,0-.62,0c-.19,0,0,.09.13.16s.45.07-2.67,0a6.94,6.94,0,0,1,1.28-.12,28.16,28.16,0,0,0-7.55,1c-2.41.57-4.69,1.35-7,2.09l.42.07a18,18,0,0,0-2.47-1.52c-.93-.75,1.59.5,2.65,1.3l-.69-.12c.55-.2.76-.31.16-.22l-.21.07.84.15c-3.61-2.5-7.78-3.56-11.95-4.22A57.08,57.08,0,0,0,139,22.85c.49,0,1-.09,1.48-.09-.87.47-4.34.36-7.74,1l.3,0a15.51,15.51,0,0,0-2.06-.64c1,.25,1.33.12,1.06.09a33.85,33.85,0,0,0-8.53-1.75,26.07,26.07,0,0,0-5.07.12,16.23,16.23,0,0,0-5.58,1.71c.28-.22.6-.37.9-.57a11.3,11.3,0,0,0-3.65,2.21,12.6,12.6,0,0,0-2.85,3.88l1.1-.16a23.77,23.77,0,0,0-2.38-2.23c-.89-.57-2.56-1.67-1.66-.83a17.15,17.15,0,0,0-6.49-3.25,14.52,14.52,0,0,0-7.07,0,17.77,17.77,0,0,0-6.15,2.92,36,36,0,0,0-5,4.38l.76,0a24.12,24.12,0,0,0-1.61-2c.83.79,1.94,2,1.34,1.27a22.41,22.41,0,0,0-6.46-5.07c.45.53.9.62,2.2,1.75a33.82,33.82,0,0,0-4.77-2.29c3.39,1.3.18-.46-1.38-1,.24.14-.31.07-.2.17-2-.7-2.27-.49-2.64-.44a4.16,4.16,0,0,1-1,.11c-.27,0-.62,0-1.08,0s-1,0-1.75.07l.29-.15A23.34,23.34,0,0,0,57.16,24c-.5.07,0-.19.66-.5a7.72,7.72,0,0,0,1.49-.72A19.68,19.68,0,0,0,55,25c-1.31.88-2.54,1.76-3.78,2.57.5-.48,1.21-.95,1.88-1.46s1.41-.93,2-1.32a18.65,18.65,0,0,0-2.92,1.59c-.68.43-1.21.88-2.17,1.61l.19-.14c-.82.6-1.57,1.3-2.35,1.94l1.09.23a12.58,12.58,0,0,0-1.37-2.28c.27.41.54.82.78,1.25a31.53,31.53,0,0,0-4.76-4.4,19.33,19.33,0,0,0-6.7-3.16c2.57.71,2.79.83,2.45.61s-1.29-.59-1-.67l-1.06-.47-1-.38c-.6-.23-1-.38-.66-.33-2.61-.41-4.28-1.23-8-1.13a11,11,0,0,0-1.4-.1c-.61-.05-1.14,0-.84-.17-3.5.29.84.11.54.27a17.47,17.47,0,0,0-8.85,2.6,20.22,20.22,0,0,0-6.61,8.63C9.64,31.72,9.19,32.93,8.8,34l-.92,2.84L6.09,43.18c-.75,1.87.15-1.68.15-1.68-.39,1.08-.73,2.07-1,3l0-.06a21.75,21.75,0,0,0-.81,2.68C4.2,48,4,48.94,3.8,49.91c.06-.62-.16,0-.48.87-.52,2.41,0,1.68-.83,4.82a17.94,17.94,0,0,1,.12-2.48c-.53,2.86-.88,5.7-1.25,8.68-.29.76,0-1.83.1-2.89C.91,62.23.37,67.59.6,68.65c.09-.72.18-1.43.3-2.14-.12,1.22-.3.61-.25-.3.12-2.9.64-4.13.75-4.27l-.24,2.12a30.73,30.73,0,0,0,1-5.54c.33-2.38.72-5,1.22-7.11l0,1.84c.2-1.46.42-2.91.66-4.36.34-.88.71-1.44.26.62a25,25,0,0,0,.72-2.65,9.24,9.24,0,0,1,.67-2.13v0l.13-.32c.12-.27.1-.14,0,.13l.78-2.9c-.09.59.43-.39-.18,1.35,1.83-5,2.54-8.3,3.67-10l-.16.42.85-2,.48-1.05c.2-.46.17-.51.12-.51s-.15,0-.08-.23a9.09,9.09,0,0,1,1-2.11,14.64,14.64,0,0,1,1.37-1.35,17,17,0,0,1,1.45-1.21l.27-.73c.49-.6,1.71-1.48,1.56-1.22a9.39,9.39,0,0,1,.84-.76c.08-.08,0,0-.13,0s-.62.31,0-.2c.42-.2.84-.48,1.32-.7s1-.43,1.53-.62,1.1-.33,1.65-.46,1.12-.2,1.66-.27l1.55-.09c.48,0,.93,0,1.32,0a3.61,3.61,0,0,1,1.53.31c.67-.06-.21-.18-.76-.26s-.78-.14,1.2,0c1.05.6,4.58.39,7.74,1.68-1.07-.06-4.08-1-.92.11a6.46,6.46,0,0,1,1.87.43,13.94,13.94,0,0,1,2.24,1,27.69,27.69,0,0,1,4.09,2.71c.06,0,.24.05.52.23s.64.5,1.06.89A12.67,12.67,0,0,1,48,30.4l.22.44.35-.32L50.24,29,52,27.57c-.07.16,1.71-1.22,4.22-2.47a21.54,21.54,0,0,1,4.1-1.58,17.62,17.62,0,0,1,3.85-.59L64,23a7.7,7.7,0,0,1,3.36-.17,16.87,16.87,0,0,1,5,1.44c-.11.07-.3.05-.67,0s-.93-.28-1.77-.5a18.91,18.91,0,0,1,2.79,1.16,11.54,11.54,0,0,1,3.2,1.78c-.26-.08-.52-.17-.78-.24a22.57,22.57,0,0,1,4.28,3.89l.52.63.49-.58a20.55,20.55,0,0,1,5.77-4.92c.06-.19-.94.19-1.34.3-.21,0-.28,0,0-.28A9.47,9.47,0,0,1,87,24c.26,0,.52.12-.74.89a9.11,9.11,0,0,1,1-.6,6.91,6.91,0,0,1,1.41-.61,19.25,19.25,0,0,0-1.95,1.14A10.17,10.17,0,0,0,88.34,24a3.48,3.48,0,0,1,1.29-.59c0,.1.36,0,.68,0s.62-.08.5,0a10,10,0,0,0-2.28.72,13.18,13.18,0,0,1,3.16-.8,10,10,0,0,1,2.28,0c-.18-.1,0-.3,1.56-.2,2,.26,2.32.52,2.43.59s0,.16,1.11.58a10.7,10.7,0,0,1,2,.76c.71.32,1.29.64,1.4.52a5.21,5.21,0,0,1,1.45,1.2,18.8,18.8,0,0,1,3.34,2.77l.7.75.42-.9c1-2.13,2.5-3.58,1.43-2.69l-.36.4.21-.27h0a10,10,0,0,1,4.11-3.21,15.14,15.14,0,0,1,5.26-1.19,35.64,35.64,0,0,1,10.64,1.3l0,.09a30.28,30.28,0,0,1,3,.88l.13,0,.13,0c3.33-.64,6.81-1.11,9.08-1.3,1.24-.1,2.93.16,2.39.26,1.59,0,2.48,0,3.54.05a14.35,14.35,0,0,1,1.83.2,24,24,0,0,1,2.71.52c-1.58-.22-1.32-.13-1.2-.09s.11,0-2.05-.3a39.08,39.08,0,0,1,4.52.92c1.25.34,2.55.63,4.63,1.33-.69-.14-.15.13.76.6a25.4,25.4,0,0,1,3,1.71l.41.3.42-.15.5-.18-.51.13-.49.13-.3-.27a13.66,13.66,0,0,0-1.84-1.3,13,13,0,0,1,1.94,1.17l.29.22.35-.11c1.25-.39,2.4-.8,3.59-1.11-.31.21-.62.4-.92.62a58.82,58.82,0,0,1,11.21-2.2,10.05,10.05,0,0,1,4.76.78,5.37,5.37,0,0,1,2.79,3.23c.46.92.2-.12-.34-1-.15-.22-.27-.46-.42-.64s-.28-.34-.37-.46-.18-.31.18,0a7.69,7.69,0,0,1,1.86,4.8c.11,1.59,0,2.89,0,3.49a36,36,0,0,0,.08,5.08c.06.64.14,1.27.25,2.07a10.62,10.62,0,0,0,.8,3.12l.89,2,.47-2.21.13-.63c-.25.68-.7,1.3,0-2.85,1-3.82,1.64-4.55,1.12-2.14a4.3,4.3,0,0,1-.39,1.29c-.25,1.24-.48,2.88-.07,1.39l0-.52c.27-.93.74-2.69,1.14-4.05s.81-2.3.71-1.67c.81-2.8.18-1.26-.52.8.41-1.18.75-2.23,1.16-3.18l.55-1.41c.19-.46.41-.89.61-1.33l.62-1.33.76-1.32a23.38,23.38,0,0,1,1.92-2.82c-.53.59-1,1.14-.6.48A25.27,25.27,0,0,1,197.24,24c.51-.52.71-.78.9-1s.29-.34.6-.64a6.61,6.61,0,0,1,.66-.58l1.24-.83c1.3-.59,1.13-.35,1.17-.31s.27-.16,2.61-1c3-.61.67.12-.41.55a14.07,14.07,0,0,1,6.05-.85,26.89,26.89,0,0,1,4.69.83,22.11,22.11,0,0,0-2.34-.33,19.05,19.05,0,0,1,3.68.72c-.41-.21-.84-.38-1.26-.57a9,9,0,0,1,2.44.83c1.43.34-.94-.77,1.89,0a31.89,31.89,0,0,1,5,2.57l.16.12h.34a2.59,2.59,0,0,1,.8.09l-.79,0h-.32l-.25-.16c-1.86-1.14-1.71-.89-1.51-.7s.33.35-1.81-.65a18.53,18.53,0,0,1,3.1,1.66h0l.83.21h0s0,0,0,0l-.84-.21a4.55,4.55,0,0,1-.51-.25l.46.32.3.23h.6c1.2,0,1.94,0,2.46-.1a11.23,11.23,0,0,0,1.16-.12,11.79,11.79,0,0,1,1.32-.14c.31,0,.69,0,1.17.06a11.47,11.47,0,0,1,1.73.23c-.76.06,1.27.53,2.16.82-1.1-.34-1.37-.43-1.08-.47a9,9,0,0,1,2.19.36c.86.36,1.53.63,2,.91s.93.45,1.27.64a9.78,9.78,0,0,1,2,1.26,9.84,9.84,0,0,0-.87-.7,8.2,8.2,0,0,0-.92-.64,10.87,10.87,0,0,1,4.08,3.26c0,.13-.36-.33-.72-.68s-.66-.63-.34-.3a7,7,0,0,1,1.56,1.83l.32.56.54-.34a77.42,77.42,0,0,1,7.44-3.77c1.82-.59.29.22,1.88-.28a17.48,17.48,0,0,1,4.34-1.25c.58-.09,1.16-.17,1.82-.23s1.48-.16,2.3-.17l.88,0,.33-.69.4-.85c-.85,1.16-.94,1.41.47-1.8L263.45,24l-.24.48h-.61a22.66,22.66,0,0,0-5.07.81,23.26,23.26,0,0,1,4.95-1,26.77,26.77,0,0,0-6.36,1.17c1.15-.42,1.68-.58,1.77-.63s-.26,0-.85,0c1.86-.26,3.69-.69,5.58-.77H263l.12-.25a39.08,39.08,0,0,1,2.23-4.26l.46.38c1.5-2.51,2.69-4.82,4-7.28a54.84,54.84,0,0,1,5.13-8.06c-.51.6-1,1.23-1.5,1.88A12.41,12.41,0,0,1,275.11,4a14.91,14.91,0,0,1,1.37-1.46,5,5,0,0,1,.71-.55,1.07,1.07,0,0,1,.42-.17c0,.06,0,.07,0,0l0,0-.06.08,0,0a.22.22,0,0,0,0,.06,4.75,4.75,0,0,1,.08,1.24c.13-.14.49,5.56,1,6.22l.07,3.42c.52,6.14,1.25,6.94,1.92,12.83-.44-1.75-.25,1-.88-3a19.27,19.27,0,0,0,.58,3.76c0,.1,0,.21,0,.38l.15,1.16,1.16-.51c.66-.29,1.78-.91,2.94-1.52a19.21,19.21,0,0,1,3.23-1.21,10.21,10.21,0,0,1,3.08-1.08c.24,0,0,.1,0,.1,0-.18,3.36-.58,1.43-.57a40.61,40.61,0,0,1,5,0,25.57,25.57,0,0,1,2.82.37l1.44.28,1.41.41a19.92,19.92,0,0,1,8.85,5.23l.36.41.57-.34.51-.31a30.08,30.08,0,0,1,5.7-3.52A23.51,23.51,0,0,1,325,23.88c-.23.1,0,.08-.71.2l1.64-.23c.45-.05.83-.09,1.14-.14l1.51-.23a10.9,10.9,0,0,1,4.89.41c1.46.53.67.37-.25.17s-2-.36-1.06-.13c.35.39,2.1.68,4.17,1.4a19.07,19.07,0,0,1,5.94,3.24l-.82-.51a49,49,0,0,1,4.85,4l.86.85.55-1a17.47,17.47,0,0,1,3.78-4.77s-.14.2,0,.09a13.35,13.35,0,0,1,2.33-1.92,15,15,0,0,1,3.41-1.54,18.22,18.22,0,0,1,7.89-.37c-1.54,0-2.21-.14-1.33.2,1.07.11.93,0,1.06-.08s.54-.2,2.68.33c1.37.46,4.26,1.77,4.5,2.23a31.83,31.83,0,0,0-3.82-1.45c1.88.92,5,1.88,6.78,3.06h-.31c.46.26.9.53,1.21.72l1,.66.39-1.13c1.61-4.72,1.46-5.44,3.92-11.22l-.39.61c1.16-3.6,1.44-2.81,2.85-6.28l.88-.81a36.19,36.19,0,0,1,2.88-5A9.35,9.35,0,0,1,390,2.71a1.74,1.74,0,0,1,1.47-.27,2,2,0,0,1,1,1,3,3,0,0,0-.61-.7,1.32,1.32,0,0,0-.87-.26,3.78,3.78,0,0,0-2.06,1.3,21.52,21.52,0,0,0-3.11,4.58,25.93,25.93,0,0,1,3-4.11,5.36,5.36,0,0,1,1.79-1.38,1.17,1.17,0,0,1,1,0,1,1,0,0,0-.93,0,4.9,4.9,0,0,0-1.13.64,2.54,2.54,0,0,1,1.66-.9c.58,0,1.16.67,1.46,1.54a9.88,9.88,0,0,1,.52,3l.16,3.52c-.4-.42-.32,2.8,0,6.57s1,8.07,1.2,9.93a21.15,21.15,0,0,0,.85,2.55l.19.45.48.13c.94.25,1.89.49,2.77.8A5.78,5.78,0,0,1,401,32.19a.92.92,0,0,1,.25.69,2.65,2.65,0,0,1-.28,1,12.05,12.05,0,0,1-1.5,2.35c-1.19,1.51-2.71,3.11-4,4.95a34.74,34.74,0,0,0-3.37,6c1-1.56.73-.86.26.17s-1,2.47-.58,2.28c-.38,1.14-.63,1.93-.77,2.46s-.25.8-.29.9a34.62,34.62,0,0,0-1.43,7.16c-.27,1.74,0-2.32-.12-2.1-.27,2.66-.27,3.23-.35,3.56a6.05,6.05,0,0,0-.2,2.23c.09-.37.19.09.29,1l.48,3.82c-.13-1.41-.21-2.83-.22-4.26.46,3.68.72,5.23.87,6.82.09.79.19,1.58.37,2.6s.47,2.28.75,4c-.13-.7-.33-1.42-.52-2.14.34,1.74,1.12,5.19-.66,7.18a10.26,10.26,0,0,1-3.53,2.41c-.63.3-1.25.48-1.79.72s-1.06.3-1.47.44a1.8,1.8,0,0,1-.76-.06c-.1-.08.09-.06.82-.23-5.13.83-11.43-1.44-15.8-4.68l-.77-.57-.63.68a14.34,14.34,0,0,1-3.53,2.66,13.77,13.77,0,0,1-3.68,1.39l.57-.31a11,11,0,0,1-4.56.85c.1-.07.62-.18-.1-.15a9.78,9.78,0,0,1-2.48-.19,9.08,9.08,0,0,1-3.1-1.48,11.14,11.14,0,0,0,1.56.72,14.88,14.88,0,0,1-4.2-3.42,22.44,22.44,0,0,1-2.75-3.84l-.66-1.17-1,.76a38.48,38.48,0,0,1-8.08,4.85c-.08-.21-1.67.33-3.68.91a59.36,59.36,0,0,1-6.08,1.43l.1-.08a45.41,45.41,0,0,1-6.48.77,21.89,21.89,0,0,1-5.77-.57A16.66,16.66,0,0,1,307,82.46a14.32,14.32,0,0,1-2.24-1.82A11.56,11.56,0,0,1,303,78.35l-.63-1.07-.86.84-.86.84a16.89,16.89,0,0,1-4.83,2.5,16,16,0,0,1-3.39.69,15,15,0,0,1-3.69-.08l-1.15-.19L287.28,83c-1.19,5.09-2.59,10.56-4,14.89.46-1.35.27.32-.15,1.92-.68,2.08-1.48,5.87-1.77,5.41l.25-.74c-.89,1.41-2.15,5.8-3.74,8.67.07.24.13.48.18.73a4.71,4.71,0,0,1-1,1.05l-.09,0h0a.51.51,0,0,1,0,.2s0,.1,0,0a1.2,1.2,0,0,1,.09-.19c0-.07,0,0,0,0v0a2.56,2.56,0,0,1-.17-.27l-.43-.7-.37-.85c-.28-.55-.45-1.21-.69-1.82a79.76,79.76,0,0,1-2.1-8,72.35,72.35,0,0,1-1.88-12.82c-.13-.67-.24-1.4-.36-2.18l-.15-1h-1c-1.63,0-3.4.1-4.91.1l.13-.28c-1.52-.09-2.84-.16-4.08-.32l-1.83-.2-1.79-.27A44.78,44.78,0,0,1,249,84.21c.49.12,1,.22,1.48.3-2-.65-3.21-1-4.43-1.36a9.37,9.37,0,0,1-3.81-2,.64.64,0,0,1-.06-.17l0-.27-.94.13-.95.13a28.39,28.39,0,0,1-5.08,1.92c-.88.24-1.77.47-2.67.65-.45.09-.9.19-1.35.27l-.68.12c-.22,0-.41,0-.61.06a6.31,6.31,0,0,1-4.46-1.15A11.3,11.3,0,0,1,222.2,79c.11.07.28.22.87,1.14a12.07,12.07,0,0,1-1.18-2.46l-.68-2-1.52,1.51a26.26,26.26,0,0,1-5,3.81l-1,.61c-.32.16-.58.3-.78.42-.4.24-.53.39-.27.39-.05-.07-.5.07-1.23.29s-1.71.53-2.84.81a38.22,38.22,0,0,1-7.11.91l.62-.29c-1.67.18-2.55.26-3.59.28a41.58,41.58,0,0,1-4.63-.2c-1.12-.15-1-.32.52-.1a27.87,27.87,0,0,0-3.43-.32,8,8,0,0,1-3.69-1,10.27,10.27,0,0,0,1.53.42,10.09,10.09,0,0,1-2.85-1.41,7.36,7.36,0,0,1-1.53-1.33,8.27,8.27,0,0,1-1.49-4.12,8.42,8.42,0,0,1,.16-3.14,11.32,11.32,0,0,1,.45-4.77c.17-.26,0,.53,0,.93.13-.5.26-1,.39-1.4l.79-2.44-2,1.58a10.49,10.49,0,0,0-2.58,3.05,13.7,13.7,0,0,0-1.27,3,22.07,22.07,0,0,0-.7,5.94,1.63,1.63,0,0,0-.09.79,16.73,16.73,0,0,1,.63-6.81,12,12,0,0,1,1-2.32c-.11-.06-.7.9-1,1.51s-.53.8,0-1a16.06,16.06,0,0,0-1,6.73,14.52,14.52,0,0,0,.18,1.87,16,16,0,0,0,.32,1.82l.18.88.13.74a3.89,3.89,0,0,1,0,1.29.62.62,0,0,1-.18.33.85.85,0,0,0,.05-.27,1.61,1.61,0,0,1-.87,1.17,6.34,6.34,0,0,1-2.76.1c-.2-.13-1.28-.31-2.57-.68a38.84,38.84,0,0,1-3.69-1.24c.06.33-2.41-.72-.17.44a11.58,11.58,0,0,1,1.65.56c.29.1.63.2.83.25l-.14,0a20.11,20.11,0,0,0,4.81,1,12.41,12.41,0,0,1-5.3-1.1c-1-.17-2.2-.42-2.84-.6-2.49-1.39-7.22-4.08-7.73-4.68l-.38-.2-.52-.28-.49.22a94.53,94.53,0,0,1-9.38,3.48c-3.15,1-6.07,1.73-7.94,2.25a5.6,5.6,0,0,1-1.75.13c-.37,0-.59-.07-.91-.13.49,0,1-.1,1.51-.13a9.36,9.36,0,0,0,1.19-.22,15.08,15.08,0,0,1-3,.29,14.07,14.07,0,0,1-3.37-.44c-2.15-.56-3.82-1.54-4.27-1.6a5.26,5.26,0,0,1-1.22-1c0-.07.19.06.37.16s.32.16.11,0-.8-.56-1.9-1.58l.67.46a16.83,16.83,0,0,1-1.41-1.53l-.7-.89-.79.95a8.37,8.37,0,0,1-1.28,1.19,15.09,15.09,0,0,1-1.51,1,20.27,20.27,0,0,1-3.22,1.55,30.8,30.8,0,0,1-6.84,1.75,11.46,11.46,0,0,1-7.11-1,10.3,10.3,0,0,1-5.06-6.38c.27.85.46,1.27.49,1.46A12.26,12.26,0,0,1,100,77.3l-.25-1-.74.79a20.66,20.66,0,0,1-3.26,2.75A26.66,26.66,0,0,1,92,82a30.13,30.13,0,0,1-8.38,2.61,12.46,12.46,0,0,1-8.36-1.22A12.09,12.09,0,0,1,70,76.93l-.31-.88-.63.69a25.55,25.55,0,0,1-6.92,5.34c-1.87,1-3,1.43-3.83,1.83L57,84.45c-.44.16-.94.32-1.56.51a9,9,0,0,1-1-.16L53.42,85l-1.09.13a15.7,15.7,0,0,1-2.22.12,11,11,0,0,1-6.35-2.17,9.51,9.51,0,0,1-2.27-2.38,9.69,9.69,0,0,1-1.42-3.12l-.43-1.81-1,1.54a14,14,0,0,1-3.21,3.42c.31-.14.63-.28.94-.43A19.7,19.7,0,0,1,31.53,83c-1.74.66-3.17,1-3,.79a5.84,5.84,0,0,1-2,.57l-.12-.14a46.5,46.5,0,0,1-7,1.07c-2.77,0-2.55-.19-2.65-.33s-.52-.2-4.5-.54c-1.48-.1-3.59-.29-5.17-.54s-2.66-.48-2.14-.25a23.38,23.38,0,0,1,3,1c-.91-.15-1.81-.33-2.7-.56-.31.16-1,.19-.83.47s1.27.93,4.69,1.66c1.62.16,3.23.23,4.84.23.51.11,1,.2,1.54.3q-2-.06-4.06-.27a18.16,18.16,0,0,0,5.4.21,8.05,8.05,0,0,0,2,.23q2.37-.29,4.7-.78c.6.11-2.08.62,1.11.32,2.17-.56-2.16-.06,1.45-.79,1.15-.11,1.58-.11,2-.17a9.49,9.49,0,0,0,2.25-.66c.4,0-.12.27-1.17.6a37.08,37.08,0,0,0,4.07-1.53,11.79,11.79,0,0,0,3-1.84,11.37,11.37,0,0,0,3.88-3.75L38.3,78c.45,1.86,1.22,2.93,1,3a14.77,14.77,0,0,0,2,2.16,15.05,15.05,0,0,0,3.39,2.16c-1-.38-1-.32-.51,0a6.24,6.24,0,0,0,1.18.57,10.64,10.64,0,0,0,1.73.57c2.52.69,5.46.59,4.9.88a32.19,32.19,0,0,0,7.31-1.68A25.57,25.57,0,0,0,67,80.85a6.55,6.55,0,0,1-1,.91c1.21-.89,2-1.5,2.63-2A19.23,19.23,0,0,0,70.54,78l-2.39-.47,0,.06c.27.2.84,1.4,1.8,2.7a12.61,12.61,0,0,0,3.42,3.3c.69.67,1,.85.92.91a2,2,0,0,1-.83-.31l-1.19-.72c-.3-.2-.48-.26-.31,0,0-.17,1.38.93,2.8,1.62s2.85.93,2.24.62a28.7,28.7,0,0,0,4,1c.52-.45,2.78-.19,5-1a23.94,23.94,0,0,1,2.63-.39,9.36,9.36,0,0,0,2.79-1c1-.36.63-.1,0,.25a10.91,10.91,0,0,1-1.06.5Zm90.47-1.6h0a4.31,4.31,0,0,1-.47,2.5,4.1,4.1,0,0,0,.39-1A5.86,5.86,0,0,0,180.24,83.73Zm-.46-8.48a15.31,15.31,0,0,0-.25,3.59c-.07.3-.21,0-.2-.87,0,.23.05-.15.1-.74A15,15,0,0,1,179.78,75.25Zm-7.43,10.21a10.55,10.55,0,0,1,1.86.49c-.6-.1-1.31-.24-2.24-.48h-.16A2,2,0,0,1,172.35,85.46Z"/><path class="cls-1" d="M169.95,85.09l-.53-.17.74.33.48.07Z"/><path class="cls-1" d="M109.84,26.7l.12-.13c-.1.11-.2.2-.27.26Z"/><polygon class="cls-1" points="269.18 92.44 269.25 92.42 269.09 91.67 269.18 92.44"/><path class="cls-1" d="M69.67,22.32a2.86,2.86,0,0,0-.61-.23Z"/><path class="cls-1" d="M50,28c-.75.57-1.45,1.19-2.18,1.78L49,30l-.08-.18.08.18-1.12-.24C48.78,29,49.43,28.39,50,28Z"/><path class="cls-1" d="M38.62,21.34a.9.9,0,0,0-.34,0h.34Z"/><path class="cls-1" d="M241.4,25.43l.54.37C243.16,26.76,242.38,26,241.4,25.43Z"/><path class="cls-1" d="M186.69,42.52a11.68,11.68,0,0,0,.46,2.27C186.86,43.59,186.86,42.55,186.69,42.52Z"/><path class="cls-1" d="M286.1,23h0l.51-.18Z"/><path class="cls-1" d="M186.9,43.4c-.21.9-.38,1.7-.51,2.43l1.09-.17a6.4,6.4,0,0,1-.34-.86,5.43,5.43,0,0,0,.3.89l-1,.16C186.61,45,186.78,44.17,186.9,43.4Z"/><path class="cls-1" d="M.35,65.75l-.09.77s0,0,0,.1Z"/><path class="cls-1" d="M.29,66.62l-.05.86A6.28,6.28,0,0,0,.29,66.62Z"/><path class="cls-1" d="M.16,69.29l.08-1.82A11.09,11.09,0,0,0,.16,69.29Z"/><path class="cls-1" d="M4.7,44.92l0-.28C4.66,44.79,4.66,44.88,4.7,44.92Z"/><path class="cls-1" d="M6.67,38.8c-.55,1.42-1.38,3.53-2,5.57l0-.13-.05.14c0,.09,0,.19,0,.27a3.13,3.13,0,0,1,.12-.38l0,.12C5.08,43.15,6.33,40.11,6.67,38.8Z"/><path class="cls-1" d="M23.86,20.3a14.21,14.21,0,0,0-5,1.43,4.47,4.47,0,0,1,1.06-.31c.06,0,0,0-.14.14a8.82,8.82,0,0,0-1,.55,13,13,0,0,1,2.41-.94c.27-.08.11-.08-.05-.08s-.32,0,0-.15.4-.16.83-.29A17.55,17.55,0,0,1,23.86,20.3Z"/><path class="cls-1" d="M39.76,23.37c-2.57-1.16,0,.16-.2.15.83.31,1.3.6,1.38.6A4,4,0,0,0,39.76,23.37Z"/><path class="cls-1" d="M145.57,23.78l-.29.25C147.46,24.06,145.3,23.93,145.57,23.78Z"/><path class="cls-1" d="M167.34,25.77l-2.15.45-.92.54C165.27,26.39,166.31,26.09,167.34,25.77Z"/><path class="cls-1" d="M180.55,26.66a5.87,5.87,0,0,0-.84-.2,6.45,6.45,0,0,1,2.89,1.28l-.46-.35c-.16-.1-.34-.18-.51-.28A6.27,6.27,0,0,0,180.55,26.66Z"/><path class="cls-1" d="M308.52,27.48c-.12-.21-.26-.4-.39-.6C306.83,26.19,306.42,26.34,308.52,27.48Z"/><path class="cls-1" d="M381.14,17.47a31.8,31.8,0,0,0,2.11-4.41C382.38,14.8,381.49,16.54,381.14,17.47Z"/><path class="cls-1" d="M276.8,114.1l.43.55s.08.11.08.09,0,0,0,0a1.92,1.92,0,0,1-.13.16.82.82,0,0,0-.17.3.8.8,0,0,1,.15-.28,1.34,1.34,0,0,0,.11-.13l.06-.08h0s0,0,0-.06l-.38-.53a2.85,2.85,0,0,1-.36-.61l-.34-.67A13.54,13.54,0,0,0,276.8,114.1Z"/><path class="cls-2" d="M43.86,73.26C43,67.32,47.47,43.81,56,34.42c4.82-5.33,15.49-8.39,17.94,2.15C76,45.77,66,55.09,68.23,45.64c1.63-6.91-.39-12.86-4.69-8.76C58.12,42,54.32,58.3,53.7,66.09s-.81,9.49,2,3.87c4.3-8.61,14.4-13.61,16-11.15s-2.36,13.42-12.5,17.93C49.53,81.06,44.47,77.65,43.86,73.26Z"/><path class="cls-2" d="M74,73.31c-.82-5.95,3.61-29.49,12.1-38.88,4.82-5.34,14.47-8.11,18,2.15,2.69,7.92-1.74,18.26-7.29,20.72-5.16,2.29-8.63-.31-9.54-1.43-1.24-1.54,5.53,3.32,9.54-5.54,2.46-5.44,1.23-17.54-3.08-13.44-5.43,5.17-9.23,21.44-9.85,29.24s-.82,9.5,2,3.88c4.31-8.62,14.42-13.62,16.06-11.16s-2.36,13.44-12.52,18C79.66,81.12,74.59,77.7,74,73.31Z"/><path class="cls-2" d="M152.53,74c-.81,2.89-1.65,4.65-8.07,4.74-11.56.15-3.36.82.25-10.6,3.35-10.59,4.25-20.38,2.75-29.21-1.34-7.89-6.65-8.3-1.48-8.87a20.18,20.18,0,0,1,15.84,5s10-4.58,14.56-1.52.15,15.13-2.6,26S172,75.1,172.43,77c1.06,4.33-.26,3.59-3.93.67-2.87-2.28-6.35-5.79-5.32-10.22,2-8.56,7.32-24,4.27-26.86-1.52-1.42-6.72-.61-8.4,3.21S154.9,65.6,152.53,74Z"/><path class="cls-2" d="M208.7,26.24c-6.44.27-10.23,2.69-12.57,11.69-1.1,4.25-7,28.77-8,34.19s2.41,6,5.92,6.33c3.81.31,13.75,1.69,19.24-3.62,4.61-4.46,8.63-16.17,10.39-30.9C225.12,32.16,217.49,25.86,208.7,26.24Zm-4.62,39.58c-8.08,2.15-9.23,10.64-8,3.07s4.41-25.5,6.78-30.55c2.93-6.23,11.86-6.11,13.5.84C217,42,214.51,63,204.08,65.82Z"/><path class="cls-2" d="M28,26.24c-6.44.27-10.23,2.69-12.57,11.69-1.1,4.25-7,28.77-8,34.19s2.41,6,5.92,6.33c3.81.31,13.75,1.69,19.24-3.62,4.61-4.46,8.63-16.17,10.39-30.9C44.45,32.16,36.82,25.86,28,26.24ZM23.42,65.82c-8.08,2.15-9.23,10.64-8,3.07s4.41-25.5,6.78-30.55c2.93-6.23,11.86-6.11,13.5.84C36.35,42,33.85,63,23.42,65.82Z"/><path class="cls-2" d="M327.69,29.55c-6.44.27-9.23,2.72-11.05,6.71-2.49,5.45-8.43,32.23-9,35.85-.92,5.42,2.41,6,5.92,6.33,3.81.31,13.75,1.69,19.24-3.62,4.61-4.46,8.2-12.85,10-27.58C344.11,35.48,336.47,29.18,327.69,29.55ZM323.5,65.82c-8.08,2.15-9.23,10.64-8,3.07s4-22.18,6.35-27.24c2.93-6.23,11.86-6.11,13.5.84C336,45.29,333.93,63,323.5,65.82Z"/><path class="cls-2" d="M139.8,33c.45-2.1-5.42-1.74-7.93-1.33a15.16,15.16,0,0,0-8.25-1.93c-6.38.27-9.9,6.08-12.51,13-1.53,4.07-7.54,20.64-6.55,29.59.6,5.41,3.13,6.37,6.34,6.37a21.68,21.68,0,0,0,15.67-6.12c.11-.1,3,2.7,4.36,3.79,3.65,2.9,5,3.64,3.91-.67-.46-1.89-1.74-8.16.33-19.1C137.36,45.16,138.48,39.23,139.8,33ZM119.48,65.68c-8,2.13-9.14,10.54-7.93,3s3.94-22,6.29-27c2.9-6.17,9.81-6.19,11.43.69C129.93,45.19,129.81,62.93,119.48,65.68Z"/><path class="cls-2" d="M245.87,47.5c3.57-9,5.18-12.63,12.75-17.07,8.59-5,2.64-.27-2.81,14.86C252,55.81,250,62,250.2,69.69c.13,6.12,5,10.08.64,8.93-9.62-2.55-10-3.57-10-3.57s-9.12,5.38-13.54,1.79-.48-16.11,2.29-27,1.83-15.73,1.37-17.64c-1.07-4.36-1.61-5.1,3-.51,2.61,2.61,6,7.27,4.93,11.74-2,8.61-7.37,24.16-4.29,27,1.53,1.43,3.26-1.49,5-5.33S242.63,55.67,245.87,47.5Z"/><path class="cls-2" d="M269.84,80.5c2.09-.91-2.22-.94-1.53-13,.64-11.19,2.8-22.85,5.46-29.18,1.29-3.07,8.8-3.93,5.34-4.54a19,19,0,0,0-4.71-.46s-1-3,.76-18.31c.38-3.28-.13-7-6,12.8-2.83,9.62-12,41.12-12.1,48.87C257,80.72,267.38,81.57,269.84,80.5Z"/><path class="cls-2" d="M384,80.5c2.09-.91-2.22-.94-1.53-13,.64-11.19,2.8-22.85,5.46-29.18,1.29-3.07,8.8-3.93,5.34-4.54a19,19,0,0,0-4.7-.46s-1-3,.76-18.31c.38-3.28-.13-7-6,12.8-2.83,9.62-12,41.12-12.1,48.87C371.21,80.72,381.55,81.57,384,80.5Z"/><path class="cls-2" d="M307.57,35C304,29.11,296.66,29,292,30.59c-7.9,2.76-11.33,10.58-14.71,31.69-3,18.49-2.46,30.45-1.09,38.05.82,4.56,1.5,4.31,2,.6,2.15-17.47,5-22.79,5-22.79s13.35,1.86,18.43-9.79C307.28,55.21,311.67,41.84,307.57,35ZM293,63.8c-8.13,2.16-9.29,10.7-8.05,3.09s4-22.32,6.39-27.41c2.94-6.27,11.93-6.14,13.58.85C305.57,43.14,303.48,61,293,63.8Z"/><path class="cls-2" d="M371.61,33c-8.88-8.77-21.78.41-19.53,11.16,1.53,7.29,5.83,7.92,6.88,19,.73,7.73-1.6,9.34-2.89,3.23-2-9.36-6.59-11.86-9.8-10.11s-3.55,8,2.69,17.14c9,13.12,18.63.81,19.79-9.67.83-7.5-1.44-13-6.33-18-9.5-9.67-1.73-15.6,4.69-7.4,2.78,3.55,2.36,6,3,6.07S376.62,37.91,371.61,33Z"/></g></g></svg>